<svg width="24" height="24" viewBox="0 0 24 24" fill="none" xmlns="http://www.w3.org/2000/svg">
<path d="M20.0996 8.40011C20.577 8.40011 21.0348 8.58975 21.3724 8.92731C21.71 9.26488 21.8996 9.72272 21.8996 10.2001V13.8001C21.8996 14.2775 21.71 14.7353 21.3724 15.0729C21.0348 15.4105 20.577 15.6001 20.0996 15.6001H19.1438C18.9244 17.3401 18.0775 18.9402 16.7622 20.1001C15.4468 21.26 13.7534 21.9001 11.9996 21.9001V20.1001C13.4318 20.1001 14.8053 19.5312 15.818 18.5185C16.8307 17.5058 17.3996 16.1323 17.3996 14.7001V9.30011C17.3996 7.86794 16.8307 6.49443 15.818 5.48173C14.8053 4.46903 13.4318 3.90011 11.9996 3.90011C10.5674 3.90011 9.19393 4.46903 8.18123 5.48173C7.16854 6.49443 6.59961 7.86794 6.59961 9.30011V15.6001H3.89961C3.42222 15.6001 2.96438 15.4105 2.62682 15.0729C2.28925 14.7353 2.09961 14.2775 2.09961 13.8001V10.2001C2.09961 9.72272 2.28925 9.26488 2.62682 8.92731C2.96438 8.58975 3.42222 8.40011 3.89961 8.40011H4.85541C5.07504 6.66031 5.92198 5.06045 7.23733 3.90071C8.55267 2.74098 10.246 2.10107 11.9996 2.10107C13.7532 2.10107 15.4465 2.74098 16.7619 3.90071C18.0772 5.06045 18.9242 6.66031 19.1438 8.40011H20.0996ZM8.18361 15.4066L9.13761 13.8802C9.99538 14.4175 10.9874 14.7017 11.9996 14.7001C13.0118 14.7017 14.0038 14.4175 14.8616 13.8802L15.8156 15.4066C14.6719 16.1231 13.3492 16.5022 11.9996 16.5001C10.65 16.5022 9.32728 16.1231 8.18361 15.4066Z" fill="#0F172A"/>
</svg>
