<svg xmlns="http://www.w3.org/2000/svg" width="25" height="24" viewBox="0 0 25 24" fill="none">
  <g clip-path="url(#clip0_1267_71866)">
    <path d="M18.5 8H17.5V6C17.5 3.24 15.26 1 12.5 1C9.74 1 7.5 3.24 7.5 6V8H6.5C5.4 8 4.5 8.9 4.5 10V20C4.5 21.1 5.4 22 6.5 22H18.5C19.6 22 20.5 21.1 20.5 20V10C20.5 8.9 19.6 8 18.5 8ZM9.5 6C9.5 4.34 10.84 3 12.5 3C14.16 3 15.5 4.34 15.5 6V8H9.5V6ZM17.5 20H7.5C6.95 20 6.5 19.55 6.5 19V11C6.5 10.45 6.95 10 7.5 10H17.5C18.05 10 18.5 10.45 18.5 11V19C18.5 19.55 18.05 20 17.5 20ZM12.5 17C13.6 17 14.5 16.1 14.5 15C14.5 13.9 13.6 13 12.5 13C11.4 13 10.5 13.9 10.5 15C10.5 16.1 11.4 17 12.5 17Z" fill="#EF4444"/>
  </g>
  <defs>
    <clipPath id="clip0_1267_71866">
      <rect width="24" height="24" fill="white" transform="translate(0.5)"/>
    </clipPath>
  </defs>
</svg>