<svg xmlns="http://www.w3.org/2000/svg" width="24" height="24" viewBox="0 0 24 24" fill="none">
  <g clip-path="url(#clip0_1626_22709)">
    <path d="M12 1.99902C6.48 1.99902 2 6.47902 2 11.999C2 17.519 6.48 21.999 12 21.999C17.52 21.999 22 17.519 22 11.999C22 6.47902 17.52 1.99902 12 1.99902ZM12 19.999C7.58 19.999 4 16.419 4 11.999C4 7.57902 7.58 3.99902 12 3.99902C16.42 3.99902 20 7.57902 20 11.999C20 16.419 16.42 19.999 12 19.999Z" fill="#3B82F6"/>
    <path d="M12 16.999C14.7614 16.999 17 14.7604 17 11.999C17 9.2376 14.7614 6.99902 12 6.99902C9.23858 6.99902 7 9.2376 7 11.999C7 14.7604 9.23858 16.999 12 16.999Z" fill="#3B82F6"/>
  </g>
  <defs>
    <clipPath id="clip0_1626_22709">
      <rect width="24" height="24" fill="white" transform="translate(0 -0.000976562)"/>
    </clipPath>
  </defs>
</svg>