<svg version="1.2" xmlns="http://www.w3.org/2000/svg" viewBox="0 0 637 85" width="320" height="43"><style>.a{fill:#12c6f3}</style><path class="a" d="m21.2 75.5q-0.9 0-0.9-2 0-1.3 0.5-3.1 0.7-2 1.6-4.5 1-1 1-2.4 0.3 0.1 0.3 0 0.1-0.3 0.1-0.3 0.3-0.4 0.3-0.8 0-0.5 0.1-0.9v-0.3q-0.5-1.3-0.5-2.2l-0.3-0.1q-0.2-0.8-0.4-1.7 0-1 0.2-1.8 0.1-0.8-0.2-0.8-0.1-0.1-0.1-0.3 0-0.3 0-0.4 0.1-0.3 0.3-0.8 0.1-0.3 0.4-1 0.4-0.8 0.4-0.9 0-0.2-0.2-0.4-0.1-0.2-0.1-0.4l0.4-0.5v-0.9q0.1-0.3 0.1-0.7 0.2-0.3 0.4-0.4 0.3-0.2 0.4-0.4 0.3-0.2 0.4-0.6 0.3-0.6 0.4-0.8 0.1-0.3 0.3-0.4 0.2-0.3 0.4-0.7 0.2-0.4 0.4-0.6 0.1-0.4 0.4-0.8l0.9-0.8q0.5-0.6 1-0.6 0.6 0 0.7 1.1l-0.1 0.7-2.1 2.2q-0.3 0.3-0.3 0.7-0.1 0.1-0.3 0.2 0 0.2-0.1 0.4 0 0.3-0.4 0.7l-0.4 1.2q-0.3 0-0.3 0.2-0.1 0.2-0.2 1.6 0 1.3 0 1.6h0.4q0 0.1 0 0.4 0.1 0.1 0 0.4v0.8q0 0.2-0.2 0.5 0 0-0.1 0.1 0 0 0 0.2 0 0.1 0.1 0.4 0.2 0.1 0.2 0.4 0 0.1-0.2 0.2 0 0 0 0.2 0 0.1 0.2 0.2 0.1 0 0.1 0.2v0.1q1.1-2 2-4.1 1-2.1 2.1-4.2 0.3-0.6 0.5-0.3 0.4 0.1 0.6-0.1 0.1-0.2 0.1-0.7 0-0.4-0.1-0.8 0-0.4 0.4-0.9l1.8-3.3q3.8-6.9 7.7-13.2 3.9-6.3 7.3-9.8l0.4-0.2 0.4-0.7q0 0 0.3-0.1 0.3-0.2 0.4 0.1 0 0.1-0.3 0.5-0.1 0.4-0.1 0.6 0.4 0.6 0.9 0.1 0.2-0.3 0-1.2-0.1-0.9 0-0.9 0.3-0.1 0.3 0 0.1 0.1 0.3 0.1 0.2 0 0.2-0.4 0-0.4 0.2-0.5 1.4-0.5 2.6-0.5 0.7 0 1.8 0.6 1.4 0.7 1.4 1.9 0 0.6-0.7 1.6-0.1 0.1-0.3 0.5-0.1 0.3-0.4 0.5-0.1 0.1-0.2 0.1 0-0.1-0.3 0-0.1 0.2-0.4 0.2-0.1-0.2-0.4-0.2-0.2 0-0.1 0.4 0.3 0.4 0.1 0.6-0.1 0.1-0.2 0-0.2-0.2-0.4 0.1-0.2 0.1 0.1 0.3 0.4 0 0.1 0.2-0.8 0.8-2 1.7-1 0.8-2.1 1.6-0.1 0.2-0.2 0-0.2-0.2-0.3-0.1l-0.9 1.3q-1.3 1.3-2.7 2.8-1.3 1.4-2.7 3.3-0.4 0.8-1 1.4-0.5 0.7-1.4 0.6 0 0.1 0.3 0.4 0.2 0.1 0 0.5-2.3 3.2-4.5 6.6-2.3 3.4-4.3 7.1-0.9 1.6-2.2 4.1l-1.2 2.4q-0.1 0.4-0.4 0.4-0.1-0.1-0.4-0.1 0.4 0.7 0.2 1.7 0 0 0 0 0.1 0 0.1 0.1 2.5 1.7 3.5 2.4 1.2 0.6 4 1.3 1.1 0.3 2.1 0.7 1.1 0.2 2.3 0.2 0.1 0 0 0.2 0 0.1 0.1 0.1 0.5 0 1.1 0.1 0.5 0 1 0 0.1 0 0.1 0 0.2-0.1 0.3-0.1 0.3 0 0.8 0.3 0.9 0 2 0 1.2 0 2.1-0.2 1-0.1 2-0.2 1-0.3 1.9-0.4 1.9-0.2 3.6-0.7 1.9-0.7 3.6-1.2 2-0.6 4.2-1.4 2.4-1 4.9-2.2 0.2-0.1 0.2 0.7 0.2 0.7 0.4 0.5 0.3-0.1 0.7-1 0.5-0.9 0.7-1.1l1.2-1.6 1-1.1q0.3-0.4 0.5-1.1 0.3-0.7 0.4-1.1 0.4-1 0.7-2.2 0.3-1.2 0.3-2.5 0-0.7 0.6-0.7 0.7 0 0.7 0.7 0 0.6 0 1.4 0 0.8-0.3 1.5 0 0.1-0.3 0.1-0.1-0.1-0.1 0-0.1 0.9-0.2 2-0.2 0.9-0.7 1.9l-0.8 1.3q2.8-1.5 5.3-3.1 2.6-1.7 4.5-3.8l1.2-1.3q0.1-0.3 0.4-0.4 0.2-0.1 0.3 0.4-0.3 0.4-0.1 1 0.7-0.1 0.8-1.1 0.1-1.2 0.4-2.2 1.2-1.4 2.4-3.1 0.1-0.2 0.4-0.2 0.5 0 0.9 0.2 0.4 0.1 0.8-0.4-0.3-0.7-0.5-0.9-0.3-0.4 0.1-1.1l0.4-0.7q0.7-1.1 1.4-1.7 0.8-0.5 1.1-2.2 2.5-4.5 2.5-9.8 0-6.1-3.8-11.2-3.7-5.3-11.4-6.6-0.2 0-1.6-0.4-1.1-0.5-1.4-0.5-0.3 0-0.5 0-0.3-0.2-0.6-0.2-0.5 0-0.8 0.2-0.2 0-1.1-0.3-1.2-0.7-3.1-0.8-1.7-0.3-2-0.4l-2.3 0.5q-0.7 0-1.4 0-0.5-0.1-1-0.1-3 0-5 0.5-1.9 0.4-3.3 0.6l-5.4 0.5q-0.8-0.4-1.5 0.3h-0.1q-0.9 0-1.9 0.2-0.8 0.2-1.7 0.4-0.5 0.2-1.2 0.2-0.5 0-1.2 0.2v0.1q-0.5 0.2-1.2 0.3-0.5 0-1.1 0.3h-0.2q-0.5 0.2-1 0.5-0.4 0.3-1.1 0.1-0.5 0.2-1.2 0.3-0.5 0.1-1.2 0.4h-0.2q-0.4 0-0.8-0.8-0.4-0.8-0.4-1.1-0.1 0.8-0.4 1.8-0.1 0.9-0.9 0.9v0.1q-1 0.2-1.7 0.5-0.8 0.4-1.8 0.7-0.5 0.1-1 0.1-0.5-0.1-1.2-0.1-0.3 0-0.5 0.1-0.3 0-0.6 0.2-0.4 0.1-0.5 0.5 0 0.4-0.3 0.7-0.5 0.5-1.3 0.8-0.8 0.2-1.3 0.5-0.3 0.1-0.8-0.3-0.4-0.4-0.6-0.1-0.2 0.1-0.3 0.6 0 0.6-0.3 0.7h-0.1l-3.2 1.5q-0.6 0.2-1.6 0.7-0.9 0.6-1.5 0.7-0.2 0-0.2-0.5 0-0.5-0.2-0.3-0.7 0.3-1.5 1.5-0.7 1-1.3 1.4-0.7 0.5-1.3 0.5-0.7 0-1.2 0.6-0.4 0.2-0.8 1.2-0.3 0.8-0.7 1.2l-1.8 2.5q-0.3 0.2-0.5 0.5-0.3 0.3-0.3 0.6-0.8 1.4-0.8 3.1 0 2.9 2 4.2 2.1 1.2 4.6 1.9h0.1q1 0.6 1.7 0.5 0.6-0.3 1-0.3 0.5 0 0.9 0.5l1.8 0.4q1.5 0.4 1.5 0.8 0 0.3-0.7 0.6-0.5 0.1-1.2 0.1-2.2 0-5.5-0.9-3.2-1-5.7-2.9-2.5-2.1-2.9-5.2 0-0.1-0.4-0.6-0.2-0.6-0.4-1-0.1-0.6-0.2-1.2 0-0.6 0-1.1 0-4.3 3.3-7.8 0.6-0.7 1.2-1 0.5-0.2 1.3-0.7 0.6-0.6 0.6-0.8 0-0.4 0.8-1 1.1-0.8 2.8-1.5 1.7-1 2.8-1.5v-0.1h0.2q0.6 0 1.1-0.6 2.4-1.1 5-2.1 2.8-1 5.5-1.9 0.8-0.4 1.5-0.4 0.7 0 1.1 0.4 0-0.3 0-0.4 0-0.3 0.1-0.4v-0.2q3-0.9 6.1-1.8 3-1.1 5.9-1.1h0.1q0.8 0 1.2-0.2l0.8-0.2h0.1q0.8 0.3 1.5-0.2 3.3-0.7 6.3-0.8 3.1-0.2 5.2-0.3 0.4 0.1 0.8 0.1 0.4-0.1 0.6-0.1l1.4-0.1q0.3 0 0.7 0.1 0.6 0 1-0.1l7.4-0.2h0.1q0.4 0 0.7 0.4 0.3 0.3 0.7-0.2 1.1 0 3.2 0.4 2.3 0.4 4.5 0.8 2.2 0.2 3.3 0.5 2 0.4 5.5 1.8 3.7 1.4 7.4 4.1 3.7 2.7 6 7.2 2.4 4.3 1.7 10.9-0.1 2.4-1.1 4.5-0.9 2.1-1.9 4.4l-1.4 2.9q-0.1 0.1-0.4 0.4-0.2 0.1-0.5 0.4-0.1 0.4-0.4 0.6-0.2 0.1-0.5 0.5-0.5 0.8-1.2 1.6-0.7 0.7-1.3 1.6l-0.3 0.4q-1.8 2.9-4.6 5.3-2.8 2.2-5.5 4.1v0.1q-0.3 0.1-0.7 0.4-0.3 0.1-0.5 0.4l-0.2 0.1h-0.1q-0.3 0.2-0.7 0.3-0.4 0.1-0.6 0.7-0.5 0.4-1.1 0.4-1.7 0.9-3.1 1.5-1.5 0.6-2.6 1.1 0 0.3-0.3 0.8-0.4 0.5-0.7 0.8-2.3 1.8-3 3-0.8 1.2-2 1.9-0.2 0.1-0.4 0.1-0.5 0-0.8 0.4-0.3 0.4-0.5 0.8-0.7 0.6-2.7 1.3-1.8 0.7-2.8 1.3-0.3 0.2-0.9 0.4-0.4 0.2-0.4 0.2h-0.6q-0.2 0-0.6 0.3-0.4 0.3-0.6 0.4-0.3 0.2-0.5 0.2-0.3 0-0.4 0.2-0.7 0-1.5 0.3-0.1 0-1.3 0.1-1.2 0-1.5 0.2-0.1 0.1-0.9 0.4-0.8 0.2-1 0.2-0.2 0-0.3-0.1-0.1 0-0.4 0.3-0.1 0.1-0.4 0.1-0.1 0-0.5 0-0.3-0.1-0.6-0.1-0.1-0.2-0.5 0.1-0.3 0.3-0.5 0.3-0.1 0-0.3 0 0-0.2-0.1-0.2-0.3 0-0.5 0.2-0.3 0.1-0.6 0.1-0.9 0-1.7-0.1-0.8-0.2-1.6-0.2-0.1 0-0.8-0.4-0.5-0.4-0.6-0.4-0.9 0-1.9 0-0.8-0.1-1.6-0.2-0.1 0-0.2-0.2 0-0.2-0.3-0.2h-0.2q-0.2 0-0.7-0.3-0.4-0.3-0.5-0.4l-0.2-0.1q-0.5-0.2-0.6-0.4 0-0.3-0.3-0.3-0.1 0-0.1 0.2 0 0-0.2 0-0.2 0-0.2-0.3-0.4-0.3-1.3-0.7-0.8-0.4-1.1-0.9-0.5-0.1-0.7-0.3 0-0.1-0.2-0.5l-0.5-0.3-1.4-1.1q0-0.4-0.1-0.4l-0.4-0.3q0-0.5-0.4-0.5-0.3-0.8-0.3-0.8-1.1 2.6-2.1 5.1-0.8 2.5-1.4 4.6-0.3 1.1-0.8 1.1zm23-4.1l0.1 0.1q0.3 0 0.4-0.1 0.3-0.1 0.4-0.3h0.5q0.9-0.5 0.9 0 0 0.6 0.7 0h0.7q0.1-0.3 0.4-0.3 0.3 0 0.5-0.2 0.2 0 0.2-0.1 0.2-0.3 0.6-0.3 0.1 0 0.4 0.3 0.5 0 2.1-0.5 1.7-0.6 1.8-0.6 0.2 0.2 0.4-0.2 0.4-0.4 0.6-0.3 0-0.1 0.3-0.1 0.4-0.2 0.6-0.3 0.8-0.4 1.3-0.4 0.1-0.1 0.7-0.4 0.6-0.4 0.6-0.5 0.3-0.3 0.8-0.4 0.5-0.1 0.7-0.3 0.4 0 2.6-1.3 2.4-1.4 4.4-3.4-2.3 0.8-4.4 1.3-2 0.4-2.1 0.4-0.3 0.3-0.4 0.3-0.5-0.3-0.5-0.3l-0.2 0.1q-0.1 0-0.2 0.2-0.2 0.1-0.6 0.1-0.1-0.1-0.7 0.3-0.6 0.2-0.7 0.2-0.1 0-0.4 0.1-0.1 0-0.4-0.1-0.5 0.5-2.8 0.8-2.1 0.1-2.7 0.1h-0.2q-0.1-0.1-0.4 0-0.1 0-0.4 0 0 0.2-0.1 0.3 0 0 0 0h-0.8q-0.5 0-1 0.1-0.4 0.2-1 0.2l-0.1-0.2q-0.1 0-0.4 0.2-0.3 0.1-0.4 0.1-0.1 0-0.3-0.1 0-0.3-0.2-0.3-0.2 0-0.4 0.3-0.1 0.1-0.3 0h-0.5q-0.4 0-0.4 0-0.1 0-0.3 0.1 0 0-0.1 0 0 0-0.3-0.3-0.1 0-0.5 0.3-0.3 0.1-0.5 0h-0.3q-0.2-0.3-0.2-0.3-0.2 0-0.2 0.2h-1.2q-0.8 0-1.6-0.6-0.7-0.5-1.4-0.5-0.1 0-0.3 0.1 0 0-0.1 0-0.1 0-0.3 0 0-0.1-0.1-0.1 0 0-0.1 0 0 0-0.2 0.1 0-0.1-0.1-0.1 0-0.1 0-0.1l-1.2-0.3q0-0.4-0.2-0.4-0.2-0.4-1.8-0.8-1.5-0.4-1.8-0.5-0.1 0-0.5-0.3-0.3-0.2-0.3-0.1h-0.1q-0.4 0-1.1-0.5-0.5-0.7-1-0.8-0.4-0.4-0.4-0.8h-0.2l-0.1 0.1-0.3 0.8q0 0.1 0.2 0.5 0.1 0.4 0 0.7 0.2 0.3 0.2 0.7 0 0.2 0.3 0.4 0.1 0.4 0.3 0.8 0.2 0.3 0.4 0.7 0 0.2 0.6 0.6 0.7 0.2 0.7 0.5 0.1 0.1 0.2 0.3 0.3 0.1 0.3 0.4 0.1 0.1 0.3 0.4 0.1 0.2 0.1 0.5 0.3 0 0.4 0.1 0.1 0.3 0.7 0.9 0.5 0.6 0.7 0.7 0.2 0 0.2 0 0-0.1 0.1-0.1 0.3 0.1 0.7 0.6 0.4 0.4 0.5 0.4 0.3 0 0.3 0 1 0.2 2.1 0.4 1 0.2 2.1 0.3 0.1 0 0.4 0.2 0.2 0.2 0.6 0.2 1.1 0.1 2.5 0.1 1.6 0 2.2 0zm56.9-2q-0.6 0.2-0.8-0.6-0.2-0.8 0-1.7 0.2-1.5 1-2.3 0.1-0.1 0.5-0.1 0.7-0.3 1.6-0.4 1-0.1 2-0.3 1.2-0.2 3-0.4 1.9-0.1 3.3-0.6l6.9-0.7q-0.1-0.1-0.1-0.5 0-0.2 0.1-0.3 0.3-0.3 0.4-0.4 0-0.2-0.1-0.2 0-0.2 0.1-0.3 2.1-5 6.2-12.2 4.2-7.2 8.5-14.9l1.9-3.5q0.3-1 0.8-1.1 0.7-0.3 1-0.8 0.2-0.4-0.2-0.5-0.2-0.1 0.2-0.7 1.9-3.5 4.4-7.1 2.7-3.6 4.7-6.5v-0.1q0.4-0.4 0.8-0.7 0.3-0.2 0.6-0.6-0.1-0.2 0-0.3 0.1-0.1 0-0.2 0.5-0.6 0.9-1.1 0.4-0.5 0.6-1.3l2.2-3.1q-1.7 0.3-6.2 0.4-4.4 0-8.8 0.4-1.1 0.3-1.5 0.4-0.9 0.2-1.8 0.4-1 0.3-1.9 0.6-0.9 0-2.4 0.7-1.4 0.8-2.5 1.6-1 0.7-1.2 0.7-1 0.8-2.3 2.6-1.2 1.9-1.9 3.6-0.6 1.7-0.2 2.4 0 0.2-0.2 0.5 0 0.3 0 0.5 0 1.3 0.7 2.3 0.6 1.2 0.5 1.3l0.7 0.8 1 0.4q0.7 0.4 0.7 0.9 0 0.7-0.9 0.7-0.7 0-1.6-1-0.6-0.2-1.1-0.5-0.5-0.3-1.2-0.4-2.1 0.4-3-0.5-0.8-0.9-0.8-2.5 0-2.9 2.2-6.1 1.2-1.6 2.8-3.2 0.5-0.5 0.9-1 0.6-0.5 1.1-0.5 0.5 0.5 0.9 0.2 0.6-0.2 1.2-0.9 0 0-0.8 0-0.5 0.1 0-0.3 0.5-0.5 0.5-0.5 0.3-0.3 1.1-0.7 0.8-0.5 1.5-0.8 1.4-0.6 2.5-1.1 1-0.6 2.3-0.8 1.6-0.4 3.1-1 1.6-0.5 3.1-0.9 1.1-0.2 2-0.2 0.9-0.2 1.9-0.3 0.2 0 1-0.3h0.8l0.3-0.1q0.2-0.1 0.8-0.1 0.6-0.2 0.8 0.1h1q1.1-0.3 2.3-0.3 1.2 0 2.2 0 0.7 0 1.3 0 0.8-0.1 1.4-0.1l0.7-0.8 0.8-0.7 2-1.3q0.8-0.4 1.5-0.4 0.6 0 0.6 0.4 0 0.6-0.5 1.1-0.4 0.4-0.8 0.8-0.3 0.4-0.5 0.8 1 0 3.1 0.1 2.3 0 4.4 0.1 2.1 0.2 3 0.3 0.3 0 1.2 0.4 1 0.3 1.5 0.5l0.4 0.2q0.6 0.1 0.6 1 0 0.9-0.9 0.5l-1-0.4-1.4-0.1q-1.2-0.1-3.1-0.3-1.9-0.1-3.5-0.1h-1.7q-0.1 0-0.2 0.1-0.2 0-0.3 0-0.8 0-1.6 0-0.8-0.1-1.6-0.1l-2.1 0.1h-0.1q-1.7 2.3-3.7 5.2-1.9 2.9-3.7 5.9-0.3 1.1-0.7 1.4-0.4 0.2-1.2 0.5v0.4q0 0.5-0.2 1.3l-1.5 2.5q-0.6 1.2-1.4 2.4-0.7 1-1.1 2.1-1.4 2.6-3 5.5-1.5 2.9-2.7 5.3-1 2.3-1.4 3.2l-0.4 2q-0.3 0.4-1.2 0.2-0.8-0.1-0.8 0.7 0 0.6 0.3 1 0.2 0.3 0.2 0.7 0 0.4-0.5 0.9-1 2.3-2.1 4.4-0.9 2.1-1.6 3.9 0 0.2-0.4 0.7-0.2 0.5-0.4 0.8-0.1 0.1 0.2 0.1 0.2 0 0.1 0.3-0.3 1.3-0.7 2.8-0.4 1.3-0.8 2.3h0.2q0.8 0 1.7-0.1 0.9-0.1 1.8-0.3 1.6-0.1 3.6-0.1 2.1 0 3.3 0 0.7 0 1.7 0.1 1.2 0 1.7 0.2 0.4 0.1 0.2 0.2-0.2 0.2 0.1 0.3 0.4 0 0.7-0.1 0.2-0.2 0.7-0.2 0.7-0.4 1.2 0.2 0.6 0 1 0.1 0.5 0.1 0.9 0.3 0.9 0.1 0.9 1 0 0.9-1.2 0.6l-1.2-0.4h-0.5q-1.3 0-4.1-0.2-2.6-0.1-4.9 0-0.4 0-0.2-0.2 0.1-0.4-0.2-0.4-0.1 0-0.6 0.2-0.4 0.3-0.7 0.3l-1 0.4-6.3 0.6q0.2 0.2 0 0.4 0 0.2-0.3 0.6-0.3 0.4-0.3 0.6-0.5 1.2-1.5 1.7-0.8 0.4-1.5 0.4-1.1 0-1.9-0.5-0.8-0.5-0.9-0.8l-0.4-1-2 0.4q-1.4 0.2-1.4 0.1 0.1-0.1 0.3-0.4 0.4-0.4-0.2-0.4h-0.3q-0.9 0-1.8 0.4-0.8 0.4-1 0.7 0 0.2-1 0.6-1.1 0.4-2.1 0.7-0.9 0.1-1.1 0.2-1.7 0.4-3.3 0.7-1.6 0.3-2.7 0.5zm58.2 15.1q-0.2 0-1.6 0-1.3-0.2-1.3-0.3-0.3-0.5-0.6-0.5-0.1 0-0.6-0.1-0.2-0.2-1.3-1-1.2-0.8-1.8-1.3-0.9 0.5-1.9 1.1-1.1 0.4-2.2 0.4-2.3 0-4.7-1.8-2.3-1.8-2.3-3.9 0-1.5 0.6-3 0.6-1.8 0.5-2 0.4-0.7 0.8-1.7 0.5-1.1 0.4-1.8 0.3-0.5 1.2-2.7 0.9-2.4 1.8-4.5 1.1-2.3 1.3-2.3l0.2-0.9q0.1-0.6 0.6-0.5 0.6 0 0.6 0.6-0.2 1.9-0.6 3.6-0.4 1.7-0.4 3.8v0.4q0 1.7 0.4 3.3 0.6 1.6 0.3 3.3 0 0.3 0.1 0.7 0.3 0.3 0.4 0.5h0.2q0.6 2.1 1.5 3.8 1.1-0.6 2-1.4 1-0.8 1.7-1.6 1.1-0.1 1.4-0.6 0.4-0.6 0.6-1.4 1.5-1.3 2.7-2.9 1.3-1.6 2.6-2.9l0.1-0.1q0.6-0.9 1.4-0.5 0.2-1.1 0.9-2.3 0.8-1.2 1.7-2.2 0.9-1.2 1.7-2.4l5.3-8.4q0.7-1.1 1.2-2 0.5-1.1 1.2-2 0.2-0.4 0.6-0.7 0.6-0.2 0.7-0.4v-0.4q0-0.8 0.3-1.1h0.1q0.5-1 1-2.2 0.7-1.1 1.4-1.9 0.2-0.3 0.6-0.4 0.4-0.3 0.5-0.7 0-0.1-0.1-0.7-0.1-0.5 0.4-0.7l0.1-0.3v-0.1q1.4-0.2 1.1-0.7-0.1-0.5 0-1.3l0.4-0.6v-0.1q0.9-0.4 1.1-1.2 0.2-0.9 0.3-1.7 0.3-0.1 1-1.7 0.8-1.6 1.4-3.3 0.8-1.9 1.1-2.2 0.6-0.3 0.6-0.8 0-0.7 0.2-1.2 0.2-0.7 0.1-1.5 0-0.8 0.1-1.6 0.3-0.8 0.4-1.7 0.3-0.9 0.3-1.8v-0.2q-0.1-0.2-0.1-0.8 0-0.5 0.2-0.9 0.3-0.4 0.6-0.9v-0.1q0.2-0.3 0.6-1.1 0.5-0.8 1.1-0.6 0.5-0.3 0.8-0.3 0.6 0 1.3 0.6h0.1l0.5 0.2q0.4-0.5 0.6-2 0.2-1.6 0.2-2.4v-0.1q0.4-0.8 0.6-1.3 0.2-0.7 0-1.6 0.2-0.3 0.5-0.5 0.3-0.4 0.7-0.7 0.3 0.1 0.3 1.1 0 0.5-0.1 1.1 0 0.6 0 0.8-0.1 0.3-0.1 1-0.7 0.2-0.7 0.8 0 0.3 0.2 0.9 0.2 0.4 0.2 0.8-0.1 1.8-0.2 3.9 0 2.1 0 4.4 0 5.9 0.4 12.7 0.5 6.7 1.4 13 0.9 6.4 2.2 11.4h0.2v0.4q0 0.5 0.2 1 0.3 0.6 0.6 1.1v0.1l0.8 2q0 0.9 0.5 1.7 0.7 0.8 1.2 1.5 0.1 0.8 0.1 1.2 0.1 0.2 1.1 0.3l0.5 0.6h0.1q0.6 1.7 1.7 1.2l0.2 0.1q0.1-0.1 0.5-0.1 0.7 0 1.1 0.6 0.4 0.7 0.9 0.9l0.1 0.2q0.3 0 0.4-0.7 0.3-0.6 0.5-0.8 0.6 0.2 1.8-0.6 1.3-1 2.5-2 1.2-1.2 1.3-1.6l0.1-0.1q0.7-0.7 0.7-1.1 0-0.5 0.8-1.2l1.4-2.3v-0.2q1.2-0.5 1.2-2.2 0.3-0.4 0.5-0.8 0.3-0.5 0.4-1.1v-0.1q0.6-0.5 1-0.8 0.5-0.3 0-1.2l1.3-3.2v-0.1l0.9-1.7q0.7-1.6 1.1-3.3 0.5-1.7 1-3.3 0.1-0.4 0.5-1.8 0.4-1.6 0.8-3.2 0.6-1.6 0.6-2 0.1-0.7 0.4-1.2 0.4-0.5 0.5-1 0.2-2.5 0.9-4.9 0.7-2.4 1.3-4.8-0.1-0.2-0.2-0.5 0-0.3 0-0.5l0.1-0.2 0.3-1.7q0.1-0.8 0.5-1.6 0.5-0.9-0.1-1.7-0.2-1-0.4-3.3-0.3-2.2-1-2.8-0.1-0.5-0.5-1.4-0.4-0.9-0.4-1.3 0-0.4 0.4-0.7 0.5-0.2 0.9-0.2 1.1 0 1.6 0.6 0.7 0.7 1.3 1.3l0.2 0.2q0.1 0.9 1.2 1.7v0.1q0.5 0.7 0.6 1.5h0.1q0.2 0.2-0.1 0.5-0.1 0.3-0.1 0.5 0.2 0.4 0.6 0.5 0.4 0 0.7 0.2 0.7 0.6 0.7 1.8 0 1.2 0.9 1.6 0.6 0.7 1.2 1.3 0.6 0.6 1.6 1 0.2-0.2 0.6 0 0.4 0.1 0.8 0v-0.2h0.1q0.3-0.2 0.4-0.2 0.7 0 0.7 0.9 0 0.6-0.7 1l-0.4 0.3q-0.1-0.1-0.4-0.1-0.3 0-0.9 0.2-0.4 0.3-0.9 0.3-0.5-0.4-0.9-0.7-0.3-0.2-0.9-0.2l-0.3-0.2-2.9-2.3q-0.1-0.2-0.3-0.2 0 0 0 0-0.2 0-0.2 0.6 0 0.4 0 0.6 0.1 0.6 0.1 0.9 0 0.4 0 1 0 1.2-0.1 2.3-0.2 1.2-0.3 2.3-0.5 0.5-0.8 1-0.1 0.4 0.4 1.1 0 0.4-0.5 2.5-0.4 2.1-0.7 2.8-0.9 3.2-1.6 5.8-0.6 2.6-2.1 5.7-0.1 0.4-0.1 0.9 0 0.5-0.3 0.9v0.1q-0.8 2.2-1.6 4.3-0.8 2.1-1.8 3.9l-1.7 3.1q-0.6 0.9-1.1 1.6-0.5 0.6-1 1.5-0.7 1.4-1.4 2.7-0.6 1.2-1.7 2.2v0.2q-0.2-0.2-0.5-0.2-0.7 0-0.9 0.7-0.3 0.5-0.6 0.8-0.1 0.1-0.4 0.1-0.9 0-0.9 0.5 0 0.4-0.2 0.8h-0.2q-1.3 0.9-2.9 1.5-1.6 0.5-3.1 0.5-1.9 0-3.1-0.5h-0.2q-0.6-1.5-1.9-0.8l-0.1-0.1q-0.7-0.7-1.5-1.1-0.8-0.5-1.4-1.2-2.1-2.2-4-5.9-1.8-3.9-2.5-6.8v-0.2q0-0.2 0-0.2 0.1-0.1 0.1-0.2 0-0.4-0.2-0.8-0.2-0.4-0.4-0.7 0-0.2-0.4-1.6-0.3-1.4-0.6-2.9-0.2-1.5-0.2-2.2 0-0.9 0.1-1.5 0.3-0.5-0.4-1v-0.4q0-1.1-0.2-2-0.2-1-0.2-2v-0.1q0-1.3-0.1-2.4 0-1.2-0.1-2.4-0.2-1-0.2-2.2 0.2-1.2 0.2-2.4v-1.8q0-1.7-0.3-1.7-0.4 0-1.5 1.9-0.2 0.6-1.3 2.5-0.9 1.9-2.1 4.1-1 2.2-2 3.7-0.8 1.6-0.9 1.8-0.1 0.9-0.9 1.7v0.1l-2.4 4.1v0.1q-0.3 0.3-0.5 0.7-0.2 0.4-0.4 0.8v0.1l-1.6 2.5v0.1q-0.7 0.3-1.1 0.6-0.4 0.2 0 1.2v0.1l-1.1 1.8v0.2q-1 0.5-1.4 1.4-0.2 0.8-0.6 1.7h-0.2q-0.6 1.2-1.4 2.6-0.7 1.3-1.6 2.3-0.7 1-2.4 3.2-1.7 2.1-1.9 3.2h-0.2q-0.1 0.5-0.6 1-0.4 0.4-0.7 0.8-2.4 3.2-5.7 6.9-3.3 3.5-6.7 5.7 1.2 1.1 2.8 1.9 0.6 0 0.6 0.3 0 0.3 0.3 0.5h0.3q0.3 0 1 0 0.8-0.1 1.1-0.1 0.6 0 0.6 0.7 0 0.5-0.6 0.5zm-12.8-4.8q0.6 0 1.4-0.4 0.9-0.4 2.1-0.9-0.1-0.3-0.1-0.4 0-0.1-0.3-0.3-0.1-0.3-0.4-0.7-0.1-0.4-0.4-0.8v-0.2q-0.2-0.6-0.5-1.4-0.1-0.8-0.4-1.5h-0.1q-0.5-1-0.8-3.8-0.1-2.9-0.1-4.2-0.2 0.6-0.7 2.5-0.4 1.8-0.8 3.7-0.3 1.7-0.3 2.2-0.8 0.6-0.8 0.9 0 0.3 0.2 0.6 0.2 0.2 0.4 0.6 0 4.1 1.6 4.1zm110.6-8.8h-0.2q-0.7-0.3-1.7-0.4-0.8-0.1-1.7-0.4l0.7 0.4q-0.6 0-1.1-0.1-0.4-0.3-0.8-0.2l-2.5-0.6-0.1-0.2q-0.5-0.5-1.1-0.9-0.5-0.4-1.4-0.1 0.2 0.1 0.5 0.1 0.3 0 0.4 0.3h-0.3q-0.5 0-0.8-0.3-0.2-0.3-0.6-0.5-2-1.2-3.6-2.8v-0.1q-0.5-0.7-0.8-1.3-0.2-0.8-0.9-1.2h-0.1q-0.4-0.8-0.8-1.7-0.3-1.1-0.5-2 0-0.4-0.2-0.7 0-0.4 0-0.8 0-0.5 0-0.9 0.2-0.5 0.3-1.1-0.7 0.3-0.7-0.4-0.1-1.4-0.1-2.9 0.1-1.4 0.4-3.1l0.4-2q0.2-0.7 0.8-0.9 0.5-0.3 0.4-1-0.2 0-0.3 0.2-0.1 0.1-0.4 0.1 0 0-0.1 0 0-0.1 0-0.3h0.1v-0.1q-0.1-0.1 0-0.1 0.1 0 0-0.2v-0.1q0-0.4 0.1-0.8 0.3-0.4 0.4-0.8-0.5 0.2-1.3 0.2h-0.1q-0.7 0-1.2-0.8-0.4-0.8-0.4-1.7 0.3-1.8 1.2-2.3 0-0.3 0.5-0.3 0.8 0 1.7-0.1 1-0.1 1.9-0.2l0.9-2h0.1q1.1 0 1-0.6 0-0.5 0-1.1v-0.2l1-1.7q0.8-0.4 1.1-1.2 0.2-0.9 0.8-1.4 0.2-0.7 0.8-1.1 0.5-0.5 0.9-1.2 0.8-1 1.6-2 0.8-1 1.7-1.9 0.6-0.3 0.9-0.7 0.3-0.4 0.7-0.9 0-0.2 0-0.2 0.1 0 0.1-0.1 0.4-0.5 1.1-0.6 0.6-0.2 0.9-0.8 0.2-0.7 0.8-1.2 1-1.1 2.2-2 1.2-1.1 2.4-2 0.8-0.1 1.2-0.2 0.4-0.3 0.4-1.1h0.1q1.5-1.1 2.9-2 1.5-0.9 2.8-1.7 1-0.7 2-1.2 1-0.5 1.9-1h0.4q0.6 0 0.8-0.3 0.3-0.3 0.7-0.7h0.1q9.8-4.3 18.1-4.3 1.1 0 2.3 0.1 1.1 0 2.2 0.1 4.4 0.6 7.3 2.4 2.9 1.7 4.2 4.2 1.4 2.9 1 5.8-0.1 0.7-0.4 1.4-0.1 0.6-0.4 1.3-0.1 0.1-0.5 0.5-0.4 0.3-0.6 0.5-0.8 1.2-1.1 1.9-0.3 0.5-0.5 0.8l4.1-2.3q0.9-0.5 1.5-0.5 1.6 0 1.6 1.7 0 1.6-1.4 2.7-0.7 0.5-2.8 1.3-2.1 0.8-3 1.3-0.4 0.3-0.7 0.3-0.3 0-0.3-0.4 0-0.4-0.7-0.2-0.3 0.2-0.3 0.3v0.1q0 0.3-0.8 0.8-0.4 0.3-1.1 0.4-0.6 0-1 0.3-0.5 0.1-2.4 0.7-1.7 0.5-2.5 0.7-0.1 0-1.1 0.3-0.7 0.3-1.4 0.3-0.1 0-0.3-0.2 0-0.2-0.1-0.2-0.1-0.2-0.4-0.4-0.1-0.3 0.3-0.4 0.4-0.3 1.2-0.4 0.7-0.1 0.9 0h0.1q0.3 0 0.5-0.1 0.3-0.2 0.6-0.3l1.2-0.7q0.1-0.2 0.7-0.8 0.7-0.5 1-0.8 0.9-0.9 1.6-0.9 0.7 0 1.4-0.6 1.5-2.3 1.3-2.8-0.1-0.7-0.1-1.2 0-0.9 0.7-0.9 0.7-0.2 1-0.7-0.4-0.2-0.6-0.4-0.3-0.1 0-0.6v-0.2q0.1-0.2 0.5-0.2 0.5-0.2 0.5-0.4v-0.2q0-0.2-0.3-0.5-0.2-0.4-0.1-0.8 0.5-1.4 0.5-3 0-3.3-2.5-4.8-2.5-1.4-6-1.4-0.6 0-1.1 0-0.5 0-1.2 0.1-1.2 0.1-2.4 0.4-1.1 0.3-2.5 0.5h-0.2q-0.6 0-1 0.3-0.4 0.1-0.7 0.4-1.9 0.5-4.1 1.4-1.2 0.3-1.8 0.8-0.5 0.3-0.6 0.3v0.1q-0.8 0.3-1.3 0.3-0.3 0-0.7 0-0.4-0.1-0.8-0.1 0.3 0.1 0.4 0.1 0.1 0 0.3 0.1 0.1 0.4-0.3 0.6-0.3 0.1-0.4 0.4h-0.1q-0.2 0.1-0.5 0.2-0.3 0.2-0.6 0.4-1.2 0.1-2.1 0.8-0.8 0.7-1.4 1.5h-0.2l-3 2.1q-1.1 0.5-1.9 1.3-1.7 1.3-3.4 2.8-1.7 1.4-3.4 2.9h-0.3q-0.6 0-0.8 0.4 0 0.2-0.2 0.9h-0.2q-0.4 0.5-0.9 0.9-0.5 0.1-0.7 0.5-0.1 0.4-0.5 0.8l-0.9 1q-0.5-0.2-1.2-0.4-0.5-0.4-1.2-0.4 0 0-0.1 0.1 0 0 0 0.3 0.8 0.1 1.3 0.6 0.5 0.5-0.1 1.2l-0.3 0.3q-0.5 0.5-1.3 0.4-0.7-0.2-1.2 0.5 0.3 0.1 0.7 0.1 0.4 0 0.4 0.7l-2.6 3.2q-0.3 0.5-0.9 1.1-0.4 0.6-1 1-0.2 0.1-0.2 0.4 0.2 0.1 0 0.2v0.2q0.7-0.2 1.2-0.3 0.6-0.1 1.1-0.3l7.9-0.5q2.4-0.3 5.5-0.4 3.2-0.3 5.3-0.3h0.4q0.4 0 0.3 0.2 0 0.1 0.8 0.1 1.2-0.1 1.6-0.3 0.4-0.1 1.5-0.2 1.9-0.2 4.5-0.2 2.7 0 4.1 0 0.9 0.2 2.3 0.2 1.4 0 2.1 0.1 0.4 0.1 0.4 0.5 0.1 0.3 0.5 0.3 0.7 0 0.7-0.3 0-0.2 0.5-0.2l1.6 0.1 2.5 0.4q0.8 0.1 1.2 0.5 0.5 0.4 0.5 0.7 0 0.4-1.1 0.3-0.4-0.2-1.1 0-0.7 0-1.1-0.2h-0.7q-1.7 0-5.1-0.1-3.4-0.1-6.2 0-0.4 0-0.4-0.3 0.1-0.4-0.1-0.5-0.8 0-1.1 0.4-0.3 0.3-0.5 0.3l-1.3 0.4q-4.5 0.4-8.9 1-4.2 0.7-8.8 1.5-0.6 0.1-1.1 0.1-0.4 0-0.6 0-1.6 0-1.6-0.5 0-0.6-1.1-0.6-0.9 0.6-2 0.8-0.9 0.3-0.9 0.6 0 0.2-1.3 0.6-1.2 0.4-2.7 0.7-1.3 0.2-1.7 0.2 0 0.3-0.2 0.6-0.3 0.1-0.4 0.4l-0.7 1.6q-1.3 3-1.8 5.4-0.8 2.5-0.8 4.7-0.2 0.5-0.6 1.1-0.2 0.4 0.2 0.9 0.2 0.3 0.4 0.4 0.1 0 0.1 0.5 0 0.7 0.1 0.9v0.4q0 0.4-0.2 0.8-0.3 0.4-0.2 0.8 0.2 0.2 0.6 0.2 0.4-0.2 0.5 0.1l0.8 1.4q0.4 0.3 0.5 0.8 0.1 0.6 0.3 0.8 0.2 0.3 0.6 0.6 0.4 0.1 0.6 0.5 0 0.1-0.2 0.2 0 0 0 0.3 0.7-0.3 0.2-1 0.8 0.5 0 1 0.2 0 0.5 0 0.3-0.1 0.5-0.1 0.6 0 1.1 0.4 2.1 1 4.7 1.6 2.8 0.4 6 0.4 3.5 0 7.6-0.6 4.1-0.6 8.2-1.6v-0.1q0.3 0 0.4 0.1 0.1 0 0.3 0 0.6 0 1.2-0.5l1.4-0.4q1.1-0.6 2-1 0.9-0.4 2-0.2 0.2 0.2 0 0.3-0.2 0-0.2 0.3 0.3-0.2 0.4-0.4 0.2-0.3 0.4-0.4l0.8-0.3q0.9-0.1 1.6-0.4 0.7-0.4 1.5-0.7l1.4-0.5q0.3 0.1 0.5 0.1 0.6 0 0.8-0.2 0.3-0.4 0.8-0.8 0.2 0 0.7-0.3 0.6-0.2 1.4-0.4 0.8-0.2 1.4-0.8h0.1q2-0.9 3.8-1.8 1.9-0.9 3.6-1.9l3.5-1.9q0.7-0.6 1.1-1 0.4-0.4 1.1-0.4l0.1-0.1q0.9-0.9 2-1.4 1-0.7 1.7-1.4 1-0.9 1.6-0.9 0.4 0 0.4 0.5 0 0.7-0.8 1.5-1.2 1.1-2.7 2.4-1.4 1.3-3.3 2.7-0.6 0.6-1.4 0.7-0.7 0.1-0.9 0.9-0.8 0.6-1.8 1.1-0.8 0.5-1.8 1-1.2 0.7-2.5 1.4-1.2 0.6-2.7 1.3-0.4 0-0.9 0-0.4-0.2-0.8-0.2-0.9 0-1.3 0.4 0 0 0 0.2 0 0 0.1 0.2 0.3 0 0.6 0 0.2-0.1 0.5 0 0 0 0 0.2 0 0.1-0.3 0.1-0.5 0.3-0.8 0.3v0.1l-0.9 0.4h-0.1q-0.5 0.5-0.8-0.3-0.4 0.2-0.8 0.6-0.3 0.4-0.7 0.6l-0.9 0.4q-0.5 0.1-1 0.3-0.6 0-0.8 0.4h-0.2q-0.5 0.2-1.3 0.5-0.6 0.1-1.3 0.4v0.1h-0.7q-0.6 0-1.4-0.1-0.8-0.3-1.6-0.3 0.3 0.4 0.9 0.6 0.7 0 0.4 0.5 0 0 0 0.1 0 0-0.1 0l-3.4 0.9v0.2q-0.6 0.1-1.2 0.2-0.6 0-1.1 0.3-5.1 1.3-10.2 1.9-5 0.5-9.3 0.5zm76.4 13.6q-0.1 0-1.6 0-1.3-0.2-1.3-0.3-0.3-0.5-0.5-0.5-0.2 0-0.7-0.1-0.1-0.2-1.3-1-1.2-0.8-1.7-1.3-0.9 0.5-2 1.1-1.1 0.4-2.1 0.4-2.4 0-4.8-1.8-2.2-1.8-2.2-3.9 0-1.5 0.5-3 0.7-1.8 0.5-2 0.4-0.7 0.8-1.7 0.6-1.1 0.4-1.8 0.3-0.5 1.2-2.7 0.9-2.4 1.9-4.5 1-2.3 1.3-2.3l0.1-0.9q0.2-0.6 0.7-0.5 0.5 0 0.5 0.6-0.1 1.9-0.5 3.6-0.4 1.7-0.4 3.8v0.4q0 1.7 0.4 3.3 0.5 1.6 0.2 3.3 0 0.3 0.2 0.7 0.2 0.3 0.4 0.5h0.1q0.7 2.1 1.6 3.8 1-0.6 2-1.4 0.9-0.8 1.7-1.6 1-0.1 1.3-0.6 0.4-0.6 0.7-1.4 1.4-1.3 2.6-2.9 1.3-1.6 2.6-2.9l0.2-0.1q0.5-0.9 1.3-0.5 0.3-1.1 0.9-2.3 0.8-1.2 1.7-2.2 1-1.2 1.8-2.4l5.2-8.4q0.7-1.1 1.2-2 0.5-1.1 1.2-2 0.3-0.4 0.7-0.7 0.5-0.2 0.6-0.4v-0.4q0-0.8 0.3-1.1h0.1q0.6-1 1.1-2.2 0.6-1.1 1.3-1.9 0.3-0.3 0.7-0.4 0.4-0.3 0.5-0.7 0-0.1-0.1-0.7-0.2-0.5 0.4-0.7l0.1-0.3v-0.1q1.3-0.2 1-0.7-0.1-0.5 0-1.3l0.4-0.6v-0.1q1-0.4 1.1-1.2 0.3-0.9 0.4-1.7 0.3-0.1 0.9-1.7 0.8-1.6 1.5-3.3 0.8-1.9 1-2.2 0.7-0.3 0.7-0.8 0-0.7 0.1-1.2 0.3-0.7 0.1-1.5 0-0.8 0.2-1.6 0.2-0.8 0.4-1.7 0.2-0.9 0.2-1.8v-0.2q-0.1-0.2-0.1-0.8 0-0.5 0.3-0.9 0.2-0.4 0.5-0.9v-0.1q0.3-0.3 0.7-1.1 0.5-0.8 1-0.6 0.5-0.3 0.8-0.3 0.7 0 1.3 0.6h0.2l0.5 0.2q0.4-0.5 0.5-2 0.3-1.6 0.3-2.4v-0.1q0.4-0.8 0.5-1.3 0.3-0.7 0-1.6 0.3-0.3 0.5-0.5 0.3-0.4 0.7-0.7 0.4 0.1 0.4 1.1 0 0.5-0.1 1.1 0 0.6 0 0.8-0.2 0.3-0.2 1-0.6 0.2-0.6 0.8 0 0.3 0.1 0.9 0.3 0.4 0.3 0.8-0.2 1.8-0.3 3.9 0 2.1 0 4.4 0 5.9 0.4 12.7 0.5 6.7 1.4 13 1 6.4 2.3 11.4h0.1v0.4q0 0.5 0.3 1 0.2 0.6 0.5 1.1v0.1l0.8 2q0 0.9 0.5 1.7 0.7 0.8 1.2 1.5 0.2 0.8 0.2 1.2 0.1 0.2 1 0.3l0.5 0.6h0.2q0.5 1.7 1.7 1.2l0.1 0.1q0.1-0.1 0.5-0.1 0.7 0 1.1 0.6 0.4 0.7 0.9 0.9l0.2 0.2q0.2 0 0.4-0.7 0.2-0.6 0.5-0.8 0.5 0.2 1.7-0.6 1.3-1 2.5-2 1.2-1.2 1.3-1.6l0.2-0.1q0.6-0.7 0.6-1.1 0-0.5 0.8-1.2l1.5-2.3v-0.2q1.1-0.5 1.1-2.2 0.3-0.4 0.6-0.8 0.2-0.5 0.4-1.1v-0.1q0.5-0.5 0.9-0.8 0.5-0.3 0-1.2l1.3-3.2v-0.1l0.9-1.7q0.7-1.6 1.1-3.3 0.5-1.7 1.1-3.3 0.1-0.4 0.5-1.8 0.4-1.6 0.8-3.2 0.5-1.6 0.5-2 0.1-0.7 0.4-1.2 0.4-0.5 0.5-1 0.3-2.5 0.9-4.9 0.7-2.4 1.4-4.8-0.2-0.2-0.3-0.5 0-0.3 0-0.5l0.1-0.2 0.3-1.7q0.1-0.8 0.5-1.6 0.6-0.9-0.1-1.7-0.1-1-0.4-3.3-0.3-2.2-0.9-2.8-0.2-0.5-0.6-1.4-0.3-0.9-0.3-1.3 0-0.4 0.3-0.7 0.6-0.2 1-0.2 1 0 1.6 0.6 0.6 0.7 1.3 1.3l0.1 0.2q0.1 0.9 1.2 1.7v0.1q0.5 0.7 0.7 1.5h0.1q0.1 0.2-0.1 0.5-0.2 0.3-0.2 0.5 0.3 0.4 0.7 0.5 0.4 0 0.6 0.2 0.7 0.6 0.7 1.8 0 1.2 0.9 1.6 0.7 0.7 1.2 1.3 0.7 0.6 1.6 1 0.3-0.2 0.7 0 0.4 0.1 0.8 0v-0.2h0.1q0.2-0.2 0.4-0.2 0.6 0 0.6 0.9 0 0.6-0.6 1l-0.4 0.3q-0.1-0.1-0.4-0.1-0.4 0-0.9 0.2-0.4 0.3-1 0.3-0.5-0.4-0.9-0.7-0.2-0.2-0.9-0.2l-0.3-0.2-2.9-2.3q-0.1-0.2-0.2-0.2 0 0 0 0-0.3 0-0.3 0.6 0 0.4 0 0.6 0.1 0.6 0.1 0.9 0 0.4 0 1 0 1.2-0.1 2.3-0.1 1.2-0.3 2.3-0.5 0.5-0.8 1-0.1 0.4 0.4 1.1 0 0.4-0.5 2.5-0.4 2.1-0.7 2.8-0.9 3.2-1.5 5.8-0.7 2.6-2.1 5.7-0.2 0.4-0.2 0.9 0 0.5-0.2 0.9v0.1q-0.8 2.2-1.6 4.3-0.8 2.1-1.9 3.9l-1.7 3.1q-0.5 0.9-1 1.6-0.6 0.6-1.1 1.5-0.7 1.4-1.3 2.7-0.7 1.2-1.7 2.2v0.2q-0.3-0.2-0.6-0.2-0.6 0-0.9 0.7-0.3 0.5-0.5 0.8-0.2 0.1-0.4 0.1-0.9 0-0.9 0.5 0 0.4-0.3 0.8h-0.1q-1.4 0.9-2.9 1.5-1.6 0.5-3.2 0.5-1.9 0-3-0.5h-0.3q-0.5-1.5-1.9-0.8l-0.1-0.1q-0.6-0.7-1.4-1.1-0.8-0.5-1.5-1.2-2.1-2.2-4-5.9-1.8-3.9-2.5-6.8v-0.2q0-0.2 0-0.2 0.2-0.1 0.2-0.2 0-0.4-0.3-0.8-0.1-0.4-0.4-0.7 0-0.2-0.4-1.6-0.2-1.4-0.5-2.9-0.3-1.5-0.3-2.2 0-0.9 0.2-1.5 0.2-0.5-0.4-1v-0.4q0-1.1-0.3-2-0.1-1-0.1-2v-0.1q0-1.3-0.2-2.4 0-1.2-0.1-2.4-0.1-1-0.1-2.2 0.1-1.2 0.1-2.4v-1.8q0-1.7-0.3-1.7-0.4 0-1.4 1.9-0.3 0.6-1.3 2.5-1 1.9-2.1 4.1-1.1 2.2-2 3.7-0.8 1.6-1 1.8-0.1 0.9-0.9 1.7v0.1l-2.4 4.1v0.1q-0.2 0.3-0.5 0.7-0.1 0.4-0.4 0.8v0.1l-1.6 2.5v0.1q-0.6 0.3-1 0.6-0.4 0.2 0 1.2v0.1l-1.2 1.8v0.2q-0.9 0.5-1.3 1.4-0.3 0.8-0.7 1.7h-0.1q-0.7 1.2-1.5 2.6-0.6 1.3-1.6 2.3-0.6 1-2.3 3.2-1.7 2.1-2 3.2h-0.1q-0.2 0.5-0.7 1-0.4 0.4-0.7 0.8-2.3 3.2-5.6 6.9-3.3 3.5-6.8 5.7 1.2 1.1 2.8 1.9 0.7 0 0.7 0.3 0 0.3 0.2 0.5h0.3q0.4 0 1 0 0.8-0.1 1.1-0.1 0.7 0 0.7 0.7 0 0.5-0.7 0.5zm-12.8-4.8q0.7 0 1.5-0.4 0.9-0.4 2.1-0.9-0.2-0.3-0.2-0.4 0-0.1-0.2-0.3-0.2-0.3-0.4-0.7-0.2-0.4-0.4-0.8v-0.2q-0.3-0.6-0.6-1.4-0.1-0.8-0.3-1.5h-0.2q-0.5-1-0.8-3.8-0.1-2.9-0.1-4.2-0.1 0.6-0.7 2.5-0.4 1.8-0.8 3.7-0.2 1.7-0.2 2.2-0.8 0.6-0.8 0.9 0 0.3 0.1 0.6 0.3 0.2 0.4 0.6 0 4.1 1.6 4.1zm122.8-9.6q-0.4 0-1.4 0-0.8-0.1-0.9-0.3-0.1-0.2 0.3-0.4 0.5-0.2 0-0.4-0.5-0.1-0.8-0.4-0.3-0.4-0.9-0.4-0.7 0-1.9 0.6-1.2 0.5-1.6 0.4-2.7-0.7-5.4-1.7-2.5-1.2-4.7-3-0.3-0.2-0.4-0.9-0.2-0.6-1-0.8-0.9-0.1-1.4-0.9-0.5-0.9-1.3-1.6-0.9-0.8-1.3-1.8-0.3-1.2-0.6-2.3-0.5-1.4-0.6-2.6 0-1.2 0-2.8 0-1 0.4-3.8 0.5-2.8 0.5-3.8v-0.2q0.9-2.1 1-2.9 0.3-0.8 0.4-1.2 0.2-0.5 0.8-1.4 0.7-0.9 2.4-3.3 0.8-1.1 0.9-1.2 0.3-0.1 0.8-0.7 0.8-1 1.9-2.5 1-1.4 2-2.2 1.4-1.2 3.4-2.5 2-1.5 3.6-2.4 0.5-0.4 0.9-0.4 0.4-0.1 0.9-0.3 0.4-0.1 1.7-0.9 1.3-0.9 2.7-1.7 1.4-0.8 1.7-0.7 0.1 0 0.1 0.2 0.1 0 0.3 0 0.2 0 0.6-0.3 0.4-0.4 0.7-0.5 1.4-0.9 3-0.9 1.2-0.2 2-0.4 0.8-0.3 1.7-0.6 0.8-0.2 2.7-0.6 1.8-0.4 3.4-0.4 0.9 0 1.4 0.2 0.8 0.4 1.1 0.4 0.3 0 0.5 0 0.3-0.1 0.7-0.2 0.4-0.2 0.9-0.2 0.3 0 0.4 0.3 0.3 0.1 0.8 0.7 0.1 0.1 0.5 0.1 0.3 0 0.6-0.1 0.4-0.2 0.6-0.2 0.7 0 0.9 0.6 0.4 0.4 1 0.5 0.6 0.1 1.2 0.3 0.5 0 1 0.2 1.2 0.5 2.5 1.9 1.5 1.2 1.7 2.6 0 0.3 0 0.8 0 0.4-0.5 0-1.8-1.7-3.6-2.9-1.5-1.3-4.3-1.3-2.5 0-6.2 0.5-3.7 0.5-7.1 1.6-3.5 0.9-5.5 2.2-0.6 0.6-0.9 0.8-0.2 0.2-1.3 0.2-1.3 0-2.6 1-1.2 0.9-2.4 1.6-0.5 0.3-1.3 0.4-0.8 0.1-1.2 0.5-0.3 0.3-0.3 0.4 0 0.1-0.3 0.4l-0.1 0.1q-1.6 1.6-3.2 2.4-1.4 0.8-3.3 2.3-0.1 0-0.7 1-0.7 0.9-1.4 1.9-0.6 0.9-0.9 1-1 0.3-1.8 1.5-0.8 1-1.2 1.8-0.4 0.6-1.1 1.3-0.5 0.7-0.9 1.4-0.9 1.7-1.3 3.7-0.4 1.9-0.4 4.1 0 0.9 0 1.9 0.1 1.1 0.2 2.1 0.2 1 0.2 1.4 0 0.2 0.6 0.9 0.7 0.8 1.1 1.7 0.5 0.8 1.2 1.5 0.1 0.1 0.1 0.4 0 1 0.3 1.1 0.4 0.2 0.8 0.2 0.4 0 0.6 0.9l0.3 0.3q1.6 0.2 2.9 1 1.3 0.7 2.8 1.1 0.9 0.1 1.8 0.4 1.1 0.1 1.9 0.4 0.4 0.1 0.6 0.5 0.4 0.3 0.5 0.4h0.2q0.2 0 0.4-0.3 0.2-0.2 0.6-0.2 0.4 0 1.1 0 0.7-0.2 0.9 0.1 0.7 0.4 1.2 0.4 0.5 0 1.1-0.3 0.2-0.1 1.3-0.1 1.2 0 1.3 0 0.3 0.1 0.7 0.4 0.5 0.3 0.9 0.1 0.2-0.2 0.1-0.4 0-0.1 0.5-0.2l2.6-0.3q0.2-0.1 0.5-0.1 1.2-0.2 2.8-0.6 1.7-0.5 2.6-0.6 1.6 0 3.3-1.1 2-1 4.1-1.8 2.1-1 4.2-1.7 1.5-0.6 2.5-1.4 1.1-0.8 2.1-1.5 1.1-0.7 2-1.4 1.1-0.6 1.9-1.3 0.4-0.4 0.6-0.9 0.3-0.5 0.8-0.8 3.4-2 5.6-4.5 2.1-2.5 5-5 0.6-0.7 0.9-1.1 0.3-0.4 0.7-1 0.9-1.5 2.3-2.9 1.5-1.6 2.4-3.7 0.4-0.9 1.2-1.2 0.8-0.4 0.9-1.1 0 0-0.4-1-0.2-1.2 0.4-1.6 0.7-0.4 0.7-0.9 0-0.8-0.8-1.5-0.7-0.8-0.7-1.3 0.2-3.4-0.5-5.4-0.5-2.1-2-3.8-1.4-1.8-3.7-3.9-2.5-2.3-6.8-3.4-4.3-1.2-7.7-1.6-0.8 0-1.7-0.4-0.8-0.4-1.6-0.1-0.3 0.1-1.3 0.1-0.9 0-2.1 0-1.2-0.1-1.5-0.2-1.3-0.3-2.4 0.1-1 0.3-2.2 0.3-0.8 0-1.2-0.2-0.4-0.1-0.8-0.1-0.5 0-0.9 0.3-0.3 0.1-0.9 0.3-3.7 1.4-8 2-0.1 0-1.9 0.6-1.9 0.5-3.7 1.1-1.9 0.6-2.3 0.7-1.3 0.5-2.5 0.9-1.2 0.4-2.2 1.2-0.3 0.1-0.7 0.4-0.4 0.3-0.8 0.3-0.9 0.1-1.6 0.6-0.5 0.4-1.1 0.8-0.6 0.4-1.5 0.6-0.8 0.1-1.3 0.5-0.3 0.1-0.3 0.8 0.1 0.6-0.2 0.8-0.6 0.2-1.4 0.4-0.6 0-1.3 0.1-0.9 0.1-1.8 1.3-1 1.1-1.6 1.7-0.8 0.6-2.1 2-1.4 1.3-2.1 1.9-0.7 0.4-1.4 0.5-0.6 0.1-0.8 1.3l-1.7 1.6q-0.9 0.1-1.2 0.8-0.2 0.5-0.9 1-1 0.8-1.3 1.2-0.1 0.3-1.2 1.2-0.9 0.9-1.7 0.9-0.4 0-0.4-0.4 0-0.9 1.2-2.6 1.2-0.7 1.7-1.8 0.5-1.2 1.6-2 1-0.7 1.6-1.5 0.6-0.8 1.3-1.7 0.3-0.3 0.4-0.3 1-0.7 1.7-1.7 0.8-1 2-1.6 1.2-0.5 2-1.3 0.8-0.9 1.7-1.6 6.4-4.4 14.1-8 7.7-3.7 15.3-4.6 1.1-0.2 1.9-0.3 0.9-0.3 1.8-0.4 0.4-0.1 1.7-0.3 1.5-0.2 2.8-0.4 1.4-0.2 1.7-0.1 0.4 0 0.8 0.1 0.4 0 0.7 0 0.9 0 1.4-0.1 0.7-0.1 1.6-0.1 5.7 0.1 10.7 1.4 5 1.4 9.8 4.4 0.6 0.5 1 1 0.4 0.4 1.2 0.7 0.7 0.4 1.3 1.2 0.9 1.3 2.1 2.6 1.2 1.2 2 2.7 1.5 2.6 2.1 5.5 0.8 2.9 0.8 5.8 0 10.2-6.7 17.3-0.5 0.5-1.7 0.7-1.1 0-1.3 0.2-0.2 0.2 0.3 0.8 0.6 0.7 0.3 1-1.8 1.8-3.8 3.4-0.1 0.1-0.3-0.4-0.1-0.7-0.5-0.8-0.4-0.3-0.5 0.8 0 1.1-0.3 1.3l-1.2-1.3q-0.3 0.1 0 1.3 0.3 1.2 0 1.5-2.9 2.1-5.9 3.9-3.1 1.9-6.5 3.5-6.9 3.3-14.4 5.1-7.4 1.7-14.2 1.6zm106.4-0.9l-3.3 1.4q-2.2-0.4-4.3-0.5-2-0.1-4.1-0.9-0.8-0.3-1.9-1.5-1.1-1.2-1.5-1.8-0.8-1.2-1.2-2.4-0.2-1.2-0.1-2.5 0.1-0.4 0.1-1.1 0-2 1.2-4.1 1.2-2.1 2.1-3.9l0.4-0.4q1.3-2.7 3.6-6 2.2-3.3 3.9-5.6 1.2-1.8 2.5-3.3 1.5-1.6 2.6-3.3l2.1-3.5 0.9-1.2 0.3-0.4q0-0.1 0-0.1 0.1-0.1 0.1-0.1 2-3.2 3.8-6.5 2-3.3 2.4-7.1 0.1-0.4 0.3-0.8 0.1-0.4 0.2-0.8v-0.5q0-0.8-0.1-1.7-0.1-1 0-1.4l-0.4-1.7q-0.9-0.6-0.9-1 0.1-0.6-1.5-1.4l-0.5-0.5q-0.1 0.4-0.7 0.4-1 0-1.3-0.9l-0.9 0.1q-0.2-0.4-1.6-0.6-1.3-0.3-1.6-0.2l-0.4-0.4q-0.4 0-1 0-0.6-0.1-1 0-0.4 0.3-0.6 0.2-0.3-0.2-0.8-0.2-0.4 0-0.8 0.2-0.4 0.1-0.9 0.2l-0.8 0.4q-1.2 0.3-2.9 0.4-1.6 0-2.7 0.7l-0.1-0.3-3.2 0.9-0.9 0.2q-0.9 0.8-0.9 1 0 0.6 0.9 0.7 0.9 0 0.1 0.5-1 0.5-2.2 0.8-1.2 0.3-2.2 0.9-0.6 0.4-1.1 0.8-0.4 0.3-1.2 0.2l-0.4 0.2-1.7 1.3q-1.2-0.1-2.8 0.8-1.6 1-2.6 1.6l-0.1-0.2q-0.3 0.1-0.7 0.5-0.3 0.4-0.5 0.6l-4.5 2.7-0.4-0.1-0.5 1-0.3-0.1q-1.3 1-2.4 1.8-0.9 0.8-1.8 2.4l0.1 1.6q0.5 0.2 0.9 0.4 0.5 0.1 1.1 0.2l0.2-0.2q3.1 0.2 5.7-0.4l0.1 0.1 1-0.5 0.1 0.3 3.4-1.1 0.2 0.1q0.6-0.5 1-0.5 0.6 0-0.9 1.2-1.5 1.2-3.2 0.9l-0.4 0.7h-1q0.1-0.4-0.4 0-0.4 0.4-0.4 0.4-1.7 0.5-2.9 0.8-1.2 0.2-2.5 0.2-0.6 0-1.3-0.1-0.7-0.1-1.5-0.1h-0.1q-0.3 0-0.7 0.1-0.3 0.1-0.6 0-2.3-1.2-2.3-3.2 0-2.2 1.7-4.6 1.7-2.4 3.7-4 2-1.5 2.8-1.4l0.1-0.5 1.2-0.6 0.5-0.6 0.2 0.2 2.5-2.1 0.1 0.2 2.7-1.5 0.1 0.3q0.2-0.3 0.5-0.6 0.4-0.2 0.3 0.4l0.9-0.9 0.1 0.1q1.5-1.4 2.1-1.4 0.8 0 2.6-0.7 1.3-0.5 2.6-1.2 1.4-0.7 2.8-0.9 0.8-0.2 1.3-0.4 0.5-0.1 1.2-0.4l0.1 0.3q0.4-0.3 1.5-0.7 1.1-0.4 2.2-0.6 1.2-0.4 1.5-0.2 0.2 0.4 0.5 0.4 0.5 0 0.9-0.4 0.5-0.4 0.9-0.5 0.7-0.1 1.2-0.1 0.7-0.1 1.2 0 0.1 0 0.5-0.1 0.3-0.2 1-0.2 0.9 0 2.1 0.3 1.2 0.2 1.7 0.2h0.2q0.4 0 1-0.1 0.6-0.2 0.8-0.1 0.8 0.4 1.7 0.6 0.9 0.2 1.7 0.6 0.7 0.5 1.4 0.4 1-0.2 1.1 0 2.2 1.6 3.8 2.3 1.7 0.8 2.8 3.7 0.8 2 0.8 4 0 0.9-0.3 1.8-0.1 1-0.4 2-0.4 1.1-0.8 2.1-0.2 1-0.5 2-0.1 0.5-1.3 2.7-1.1 2.1-2.2 4.2-1.2 2-1.8 2.5-0.9 1-1.9 2.4-1 1.3-1.8 2.6-1.1 1.7-2.3 3.3-1.2 1.5-2.5 3.2-1.5 1.8-2.8 3.9-1.3 2.1-2.7 4.3-0.2 0.5-0.5 1.1-0.1 0.6-0.6 1.1h-0.2q-0.2 0-0.6 0.5-0.3 0.4-0.4 0.7 0.1 0.5-0.6 2-0.5 1.4-1.1 3-0.7 1.5-1 2-0.4 0.8-0.4 1 0.2 0.3 0 1-0.1 2.7 2 4.1 2.3 1.1 4.5 1.8 0.5 0.1 0.9 0.3 0.6 0 1.1 0 2.1 0 4.2-0.7 2.1-0.6 3.6-1.2 1.6-0.6 1.8-0.5l0.4-0.5q0.7 0 1.1-0.3 0.5-0.3 1-0.4 0.3-0.3 0.7-0.3 0.2 0 0.2 0l1-0.5-0.2-0.1q0-0.3 0.7-0.4 0.7-0.3 0.8-0.3v-0.2l1.3-0.8q0.1-0.2 0.3 0 0.1 0 0.2-0.2 0.7-0.2 1.1-0.9 0.4-0.6 1.1-0.8 1.4-0.6 3.4-2.4 2.1-1.8 3.9-3.8 2-2 3.1-3.2 0.4-0.3 0.6-0.9 0.4-0.5 0.8-0.8l8.1-8.3q0.4-0.4 0.8-0.8 0.4-0.5 0.5-1 0 0 0.9-1 1-1 2-2.1 1.1-1.2 1.3-1.6 0.3-0.5 0.8-1.5 0.5-1.2 0.5-1.8 0-0.2-0.3-0.5-0.4-0.4-0.4-0.9 0-0.9-0.3-1.7-0.3-0.9-0.3-1.6 0.2-1.1 0.7-2.4 0.5-1.3 1.4-1.8 0.6-0.3 0.8-0.3l0.4 0.1q0.3-0.2 0.2-0.5 0-0.3 0.1-0.5v-0.3l-0.1-0.5q-0.2-0.5-0.2-2 0-1.6 0-2.9 0-1.4-0.1-1.6v-0.6q0.3 0.1 0.5-0.2 0.4-0.2 0.6-0.2 0.3 0 0.3 0.5 0.3 0.5 0.2 1.1-0.2 0.5-0.2 1 0 0.5 0.4 1.1 0.4 0.4 0.6 0.9 0.1 0.3 0 0.8 0 0.4 0.1 0.6 0.1 0.3 0.4 0.6 0.3 0.2 0.4 0.5v0.1q0 0.3-0.3 1-0.2 0.6-0.1 1.1 0.4 3.7 2 7.6 0.2 0.4 0.5 0.6 0.4 0.3 0.5 0.7v0.4q-0.1 0.2-0.2 0.4 0 0.1 0 0.4 0 1.3 0.4 2.2 0.5 0.8 1 1.7v0.3q0 1.4 0.4 2.6 0.5 1.2 1.3 2.4 0.2 0.1 0 0.7 0 0.4 0.2 0.6 0.2 0.6 0.6 1 0.4 0.4 0.6 0.7 0.4 0.7 0.4 1.5 0.1 0.8 0.4 1.5 0.2 0.5 0.7 0.9 0.6 0.2 0.8 0.8 0.8 1.3 1.6 3.1 0.9 1.8 1.9 2.8v0.1q0 0.6 0.5 1.1 0.5 0.4 0.9 0.9 0.2 0.3 0.2 0.8 0.1 0.5 0.3 0.5 0.3 0 0.2 0 0-0.1 0.2-0.1l1.5 1.2q0.3 0.1 0.3 0.4 0 0.1 0.1 0.3 0.3 0.1 0.7 0.1 0.3 0 0.5 0.5 0.1 0.3 0.8 1.1 0.6 0.8 0.8 0.9 0.1 0.1 0.2 0.1 0.2-0.1 0.3 0 0.9 0.4 1.6 1.3 0.6 1 1.6 1h0.1q0.5 0 0.9-0.3 0.4-0.3 0.8-0.3 0.3 0.2 0.1 0.3 0 0 0.3 0 0.3 0 0.1-0.1-0.1-0.3 0.2-0.2 0.2 0 0.4 0.3 0.2 0.1 0.5 0.3 0.7 0 0.9-0.4 0.4-0.6 0.7-0.9 0.2-0.3 0.5-0.2 0.4 0 0.7-0.1 0.4-0.4 0.6-0.8 0.4-0.4 0.9-0.5 0.4-0.3 0.7-0.7 0.4-0.7 0.5-1.4 0.2-0.8 0.3-1.4 0.7 0 0.8-0.4 0.7-1.4 1-3.1l0.2-0.6q0-0.2-0.2-0.4 0-0.1 0-0.2v-0.4q0-0.7 0.2-1.3 0.1-0.8 0.2-1.4 0.3 0.3 0.3-0.2l0.5-5.8q0-0.3-0.1-0.3-0.1-0.1-0.1-0.3-0.2-1.8-0.6-2.9-0.4-1.1-0.6-2.9-0.1-0.4 0-0.8 0.1-0.3 0-0.6-0.1-1.3-0.5-1.6-0.3-0.3-0.6-0.7-0.1-0.4-0.1-1.7 0-0.2-0.3-0.6-0.2-0.4-0.4-0.6l-0.4 0.4q-0.5-1-0.8-2.1-0.2-1-0.9-2-0.1-0.1-0.1-0.7 0.1-0.7 0.1-0.8-0.2-0.3-0.6-0.3-0.3-0.1-0.6-0.4-0.1-0.7-0.5-0.8-0.3-0.1-0.7-0.7-0.1-0.1-0.1-0.3 0.1-0.4-0.1-0.8-0.1-0.2-0.5-0.2-0.3 0-0.4-0.2-0.2-0.4-0.8-1.1-0.6-0.7-1.2-0.7-0.3 0.2-0.4 0.4-0.1 0.3-0.3 0.3-0.5-0.1-0.9-0.4-0.3-0.4-0.8-0.4-0.3 0-0.5 0.1-0.2 0.2-0.4 0.2-0.2 0-0.2-0.4 0.2-0.4-0.1-0.4h-0.1q-0.3 0-0.7 0.1-0.4 0.2-0.6 0 0.2-0.2-0.3-0.2-0.3-0.2-0.1 0 0.1 0.1-0.2 0.1-0.2-0.1-0.6-0.7-0.3-0.5-0.7-0.5-0.2-0.1-0.1 0 0.1 0.1-0.1 0.1-0.4-0.1-0.8-0.5-0.4-0.4-0.7-0.4-0.3 0-0.3 0.1 0.2 0-0.1 0.2l-0.3-0.3q-0.5-0.5-1.5-1.6-1.1-1-1.1-1.8 0.1-0.8 0.7-1.7 0.5-1 1.4-0.8 0.3 0.1 0.5 0.4 0.3 0.1 0.6 0.2h0.4q0.2 0.3 0.5 0.8 0.4 0.5 0.7 0.7 0 0.1 0.1-0.2 0.2-0.2 0.4-0.2 0.2 0 0.2 0.1 0 0 0.2 0.1 0.4 0 0.8-0.3 0.4-0.6 0.6-0.7 0.3 0 0.2 0.3 0 0.1 0.1 0.2l1.2-0.2 0.2 0.4q0.4 0.1 0.8 0.5 0.4 0.2 0.7 0.2 0.3 0.2 0.3 0.2 0.1-0.2 0.2-0.2 0.3 0 1.3 0.6 1.1 0.5 1.2 0.6 0.3 0.2 0.3 0.3 0 0.1 0.1 0.3l0.3-0.3 0.3 0.4 0.4-0.3 1.1 2.3q0.3 0 0.6 0 0.4-0.2 0.5 0 0.1 0 0.1 0.2 0.2 0.3 0.3 0.4 0.3 0.2 1.3 0.6 1.1 0.4 1.2 0.4 0.3 0 0.1-0.2 0-0.1 0.3-0.1 0.3 0 0.4 0.3 0.1 0.2 0.4 0.2 0.3 0 0.1 0-0.1-0.1 0.2-0.1 0.2 0 0.2 0.1 0 0.2 0.1 0.4 0-0.2 0.6-0.4 0.6-0.1 0.8 0 0.2 0.2 1 0.8 0.9 0.5 0.7 0.8-0.1 0.1-0.9 0.5-0.8 0.3-1.1 0.3-0.4 0-0.8-0.1-0.4-0.2-0.8-0.2-0.2 0-0.2 0.2 0.1 0.1-0.2 0.1-0.2 0-0.5-0.1-0.3-0.3-0.7-0.3-0.6 0-0.9 0.9 0 0.2 0.5 1.3 0.7 1.2 1.4 2.6 0.6 1.1 0.8 1.5 0.2 1 0.5 1.9 0.4 0.9 0.5 2 0 0.2 0 0.8 0 0.5 0.1 0.6 0.2 0.1 0.3 0.1 0.1-0.1 0.3 0.2 0 0.1 0 0.2 0.1 0.2 0.1 0.3v0.7q0 0.1 0 0.5 0.1 0.4 0.5 1.1v0.5q0 1.3 0.3 2.8 0.3 1.3 0.4 2.7 0.1 1.3 0 2.7 0 1.2 0 2.5 0 0.4 0.1 0.9 0.2 0.4 0.2 0.7 0 0.4-0.2 0.6-0.1 0.3-0.1 0.5-0.1 0.6-0.1 1.2 0 0.6 0 1.1-0.2 0.6-0.6 2.4-0.4 1.5-0.6 2.2-0.2 0.1-0.4 0.1-0.2 0-0.2 0.3-0.4 0.9-0.6 2-0.3 0.9-0.9 1.8-0.8 1.4-2 2.1-1.1 0.7-2 1.8-1.1 0-1.9 0.9-0.7 0.8-1.8 0.8-0.5 0-0.7-0.2-0.1-0.1-0.6 0.3l-0.3-0.4q-0.6 0.7-1 0.7-0.4 0-0.8-0.2-0.3-0.1-0.8-0.2l-0.6-0.6-0.5 0.3q-0.9-0.6-2-1.3-1-0.8-2.1-1.3l-1-0.3q-0.3-0.3-0.7-0.8-0.4-0.5-0.6-0.5-0.2-0.1-0.3 0 0 0.1-0.3 0-0.1 0-0.6-0.3-0.6-0.4-0.8-0.5 0-0.3-0.2-0.4-0.1-0.3-0.6-0.5-0.4-0.4-0.7-0.6-0.5-0.5-1-1.1-0.6-0.8-1.2-1.2 0-0.6-0.2-0.7-1.7-2-2.5-2.6-0.6-0.8-2.1-3.3-0.2-0.6-0.6-1.1-0.3-0.5-0.7-0.9-0.4-0.5-0.7-1.1-0.5-1-0.7-2.1-0.3-1.2-0.8-2.2-0.4-0.8-1-1.5-0.5-0.8-0.8-1.6-0.1-0.5-0.2-0.9-0.2-0.4-0.4-0.9l-1.1-1.7q-0.2-0.7-0.5-1.5-0.3-0.9-0.5-1.7l-3.3 3.4q-1.2 1.2-2.7 2.5-1.4 1.2-2.2 2.7-0.5 0.8-1.2 1.6-0.7 0.8-1.3 1.4-2.5 2.9-6.5 6.8-3.8 3.8-8 7.2-4.1 3.3-7.6 5.3-0.5 0.3-1.2 0.5-0.5 0.2-1.1 0.6-0.3 0.2-0.6 0.1l-1.2 0.5q0-0.3-0.7 0.1-0.7 0.4-1 0.6l-0.8 0.2-0.1-0.1-1.4 0.7-0.2-0.2q-0.2 0-0.6 0-0.3-0.1-0.6 0.2v0.1q-0.6 0.5-1.6 0.5-0.9 0-1.5 0.3z"/></svg>