<svg version="1.2" xmlns="http://www.w3.org/2000/svg" viewBox="0 0 104 43" width="104" height="43"><style>.a{fill:#12c6f3}</style><path class="a" d="m11 37.9q-0.5 0-0.5-1 0-0.7 0.3-1.7 0.3-1 0.8-2.3 0.6-0.4 0.6-1.2 0.1 0.1 0.1 0 0.1-0.1 0.1-0.1 0.1-0.2 0.1-0.4 0-0.3 0.1-0.5v-0.1q-0.3-0.7-0.3-1.2l-0.1-0.1q-0.2-0.4-0.2-0.9 0-0.4 0-0.8 0.1-0.4 0-0.4-0.1-0.1-0.1-0.3 0-0.1 0-0.2 0.1-0.1 0.1-0.4 0.1-0.1 0.2-0.4 0.2-0.4 0.2-0.5 0-0.2 0-0.2-0.1-0.2-0.1-0.2l0.2-0.3v-0.5q0.1-0.1 0.1-0.3 0-0.1 0.2-0.2 0.1-0.2 0.2-0.2 0.1-0.2 0.2-0.4 0.1-0.2 0.2-0.4 0.1-0.1 0.1-0.2 0.2-0.1 0.2-0.3 0.2-0.2 0.2-0.4 0.1-0.2 0.2-0.4l0.5-0.4q0.3-0.2 0.6-0.2 0.2 0 0.3 0.5l-0.1 0.3-1.1 1.2q-0.1 0.1-0.1 0.3-0.1 0.1-0.1 0.2 0 0-0.1 0.2 0 0.1-0.2 0.3l-0.2 0.6q-0.1 0-0.1 0.2-0.1 0-0.2 0.8 0 0.7 0 0.8h0.2q0 0.1 0 0.2 0.1 0.1 0 0.2v0.4q0 0.2 0 0.3 0 0-0.1 0.1 0 0 0 0 0 0.1 0.1 0.2 0 0.1 0 0.2 0 0.1 0 0.2 0 0 0 0 0 0.1 0 0.2 0.1 0 0.1 0v0.1q0.5-1 1-2.1 0.6-1.1 1.1-2.2 0.1-0.2 0.3-0.1 0.2 0.1 0.2-0.1 0.1 0 0.1-0.3 0-0.2-0.1-0.4 0-0.2 0.2-0.5l1-1.7q2-3.5 3.9-6.8 2.1-3.3 3.9-5l0.2-0.2 0.2-0.3q0 0 0.1-0.1 0.1 0 0.2 0.1 0 0.1-0.1 0.3-0.1 0.2-0.1 0.2 0.2 0.4 0.5 0.1 0-0.1 0-0.6-0.1-0.5 0-0.5 0.1-0.1 0.1 0 0.1 0.1 0.1 0.1 0.2 0 0.2-0.2 0-0.2 0-0.3 0.8-0.3 1.4-0.3 0.3 0 1 0.4 0.6 0.3 0.6 0.9 0 0.4-0.3 0.8-0.1 0.1-0.1 0.3-0.1 0.1-0.2 0.3-0.1 0.1-0.2 0.1 0-0.1-0.1 0-0.1 0-0.2 0-0.1 0-0.2 0-0.2 0-0.1 0.2 0.1 0.2 0.1 0.2-0.1 0.1-0.2 0 0 0-0.2 0.1 0 0.1 0.1 0.1 0.2 0 0.1 0.2-0.4 0.4-1 0.9-0.6 0.4-1.1 0.8-0.1 0-0.2 0 0-0.2-0.1-0.1l-0.5 0.7q-0.7 0.7-1.3 1.4-0.7 0.8-1.5 1.7-0.2 0.4-0.4 0.8-0.3 0.3-0.8 0.2 0 0.1 0.1 0.2 0.2 0.1 0 0.3-1.1 1.6-2.3 3.4-1.1 1.8-2.1 3.7-0.5 0.8-1.2 2.1l-0.6 1.2q-0.1 0.2-0.2 0.2-0.1-0.1-0.2-0.1 0.2 0.5 0 0.9 0 0 0 0 0.1 0 0.1 0.1 1.3 0.9 1.9 1.2 0.6 0.4 2 0.7 0.5 0.1 1.1 0.3 0.5 0.2 1.1 0.2 0.1 0 0 0 0 0.1 0.1 0.1 0.3 0 0.5 0.1 0.3 0 0.6 0 0.1 0 0.1 0 0-0.1 0.1-0.1 0.1 0 0.4 0.1 0.5 0 1 0 0.6 0 1.1 0 0.6-0.1 1-0.2 0.6-0.1 1.1-0.2 0.9 0 1.8-0.3 0.9-0.3 1.8-0.6 1-0.4 2.2-0.8 1.2-0.4 2.5-1 0.2-0.1 0.2 0.3 0 0.3 0.2 0.3 0.1-0.1 0.3-0.6 0.3-0.5 0.3-0.5l0.6-0.8 0.6-0.7q0.1-0.2 0.3-0.5 0.1-0.3 0.2-0.5 0.2-0.6 0.3-1.2 0.1-0.6 0.1-1.3 0-0.3 0.4-0.3 0.3 0 0.3 0.3 0 0.4 0 0.8 0 0.4-0.1 0.7 0 0.1-0.1 0.1-0.1-0.1-0.1 0-0.1 0.5-0.2 1 0 0.5-0.3 0.9l-0.4 0.7q1.4-0.7 2.7-1.5 1.4-0.9 2.3-2l0.6-0.7q0.1-0.1 0.2-0.2 0.2-0.1 0.3 0.2-0.3 0.2-0.1 0.6 0.3-0.1 0.4-0.7 0.1-0.6 0.2-1 0.6-0.8 1.2-1.7 0.1 0 0.2 0 0.3 0 0.5 0 0.2 0.1 0.4-0.2-0.1-0.3-0.3-0.5-0.1-0.2 0.1-0.5l0.2-0.3q0.3-0.7 0.8-0.9 0.4-0.3 0.5-1.2 1.3-2.3 1.3-5 0-3.1-2-5.8-1.9-2.7-5.8-3.4-0.2 0-0.8-0.2-0.7-0.3-0.8-0.3-0.1 0-0.3 0-0.1 0-0.2 0-0.3 0-0.4 0-0.2 0-0.7-0.1-0.6-0.3-1.5-0.4-0.9-0.1-1-0.2l-1.3 0.3q-0.3 0-0.6 0-0.3-0.1-0.6-0.1-1.6 0-2.6 0.3-0.9 0.2-1.7 0.2l-2.8 0.3q-0.4-0.2-0.7 0.1h-0.1q-0.5 0-0.9 0.2-0.4 0-0.9 0.2-0.3 0-0.6 0-0.3 0-0.6 0.2v0.1q-0.3 0-0.6 0.1-0.3 0-0.7 0.1-0.3 0.2-0.6 0.3-0.2 0.1-0.5 0.1-0.3 0-0.6 0.1-0.3 0.1-0.6 0.2h-0.2q-0.2 0-0.4-0.4-0.2-0.4-0.2-0.5-0.1 0.4-0.2 0.8-0.1 0.5-0.5 0.5v0.1q-0.4 0-0.9 0.3-0.4 0.2-0.8 0.3-0.3 0.1-0.6 0.1-0.3-0.1-0.6-0.1-0.1 0-0.3 0.1-0.1 0-0.2 0-0.2 0.1-0.3 0.3 0 0.2-0.1 0.3-0.3 0.3-0.7 0.4-0.4 0.2-0.7 0.3-0.1 0.1-0.4-0.1-0.2-0.2-0.4-0.1 0 0.1-0.1 0.4 0 0.2-0.1 0.3h-0.1l-1.6 0.7q-0.4 0.2-0.8 0.5-0.5 0.2-0.9 0.3 0 0 0-0.3 0-0.3-0.2-0.1-0.3 0.1-0.7 0.7-0.3 0.6-0.7 0.8-0.3 0.3-0.7 0.3-0.3 0-0.6 0.2-0.2 0.2-0.4 0.6-0.1 0.4-0.3 0.6l-1 1.3q-0.1 0.2-0.3 0.3-0.1 0.1-0.1 0.4-0.4 0.6-0.4 1.5 0 1.5 1 2.2 1.1 0.6 2.4 0.9h0.1q0.4 0.4 0.9 0.3 0.2-0.1 0.4-0.1 0.3 0 0.5 0.3l1 0.2q0.7 0.2 0.7 0.4 0 0.1-0.3 0.2-0.3 0.1-0.6 0.1-1.2 0-2.9-0.5-1.6-0.4-2.9-1.5-1.3-1.1-1.5-2.6 0-0.1-0.2-0.4-0.2-0.2-0.2-0.4-0.1-0.4-0.2-0.6 0-0.4 0-0.7 0-2.1 1.7-4 0.4-0.3 0.6-0.4 0.3-0.2 0.7-0.5 0.4-0.2 0.4-0.4 0-0.2 0.4-0.4 0.5-0.4 1.4-0.9 0.9-0.4 1.4-0.7v-0.1h0.2q0.2 0 0.5-0.2 1.2-0.7 2.6-1.1 1.4-0.6 2.9-1.1 0.4-0.2 0.7-0.2 0.3 0 0.5 0.2 0-0.1 0-0.2 0-0.1 0.1-0.2 1.6-0.5 3.1-1 1.6-0.5 3.1-0.5h0.1q0.4 0 0.6-0.2h0.4 0.1q0.4 0.1 0.7-0.2 1.7-0.3 3.3-0.4 1.5 0 2.6-0.1 0.2 0.1 0.4 0.1 0.2-0.1 0.4-0.1l0.6-0.1q0.3 0 0.5 0.1 0.2 0 0.4-0.1h3.8 0.1q0.2 0 0.3 0.2 0.3 0.1 0.5-0.2 0.5 0 1.6 0.2 1.1 0.2 2.3 0.4 1.2 0.2 1.7 0.3 1 0.2 2.9 1 1.9 0.6 3.8 2.1 1.9 1.3 3 3.6 1.2 2.3 0.9 5.7-0.1 1.2-0.5 2.3-0.5 1.1-1.1 2.2l-0.6 1.5q-0.1 0.1-0.2 0.2-0.2 0.1-0.3 0.2-0.1 0.2-0.2 0.4-0.2 0.1-0.3 0.3-0.3 0.4-0.6 0.8-0.3 0.3-0.7 0.8l-0.1 0.2q-1 1.5-2.4 2.7-1.4 1.2-2.9 2.1v0.1q-0.1 0.1-0.3 0.2-0.1 0.1-0.3 0.2v0.1h-0.1q-0.1 0-0.3 0.1-0.2 0.1-0.4 0.3-0.3 0.2-0.5 0.2-0.9 0.5-1.7 0.9-0.7 0.2-1.2 0.5 0 0.1-0.3 0.4-0.2 0.3-0.3 0.4-1.1 1-1.6 1.6-0.4 0.6-1 0.9 0 0.1-0.2 0.1-0.3 0-0.4 0.2-0.1 0.2-0.3 0.4-0.3 0.4-1.3 0.7-1 0.3-1.4 0.7-0.3 0-0.5 0.2-0.2 0-0.2 0h-0.4q0 0-0.2 0.3-0.2 0.1-0.4 0.2-0.1 0-0.3 0-0.1 0-0.2 0.2-0.3 0-0.7 0.1-0.1 0-0.7 0.1-0.6 0-0.7 0-0.1 0.1-0.5 0.2-0.4 0.2-0.6 0.2 0 0-0.1-0.1-0.1 0-0.2 0.1-0.1 0.1-0.2 0.1-0.1 0-0.3 0-0.1-0.1-0.2-0.1-0.1 0-0.3 0.1-0.1 0.1-0.3 0.1-0.1 0-0.1 0 0 0-0.1 0-0.1 0-0.3 0-0.1 0.1-0.2 0.1-0.5 0-0.9-0.1-0.4 0-0.8 0-0.1 0-0.4-0.2-0.3-0.2-0.4-0.2-0.5 0-0.9 0-0.4-0.1-0.8-0.2-0.1 0-0.2 0 0-0.2-0.1-0.2h-0.2q0 0-0.3-0.1-0.2-0.1-0.3-0.2v-0.1q-0.3 0-0.4-0.2 0-0.1-0.1-0.1-0.1 0-0.1 0 0 0 0 0-0.2 0-0.2-0.1-0.2-0.1-0.7-0.3-0.4-0.2-0.5-0.5-0.3-0.1-0.3-0.1 0-0.1-0.2-0.3l-0.3-0.1-0.6-0.7q0-0.2-0.1-0.2l-0.2-0.1q0-0.3-0.2-0.3-0.1-0.4-0.1-0.4-0.7 1.4-1.1 2.7-0.4 1.3-0.8 2.4-0.1 0.5-0.4 0.5zm11.8-2.1l0.1 0.1q0.1 0 0.2-0.1 0.1-0.1 0.2-0.1h0.3q0.5-0.3 0.5 0 0 0.2 0.3 0h0.3q0.1-0.3 0.2-0.3 0.3 0 0.3 0 0.2 0 0.2-0.1 0-0.1 0.2-0.1 0.1 0 0.2 0.1 0.3 0 1.1-0.3 0.9-0.2 1-0.2 0 0 0.2-0.2 0.2-0.2 0.2-0.1 0-0.1 0.3-0.1 0.2 0 0.2-0.1 0.4-0.2 0.7-0.2 0.1-0.1 0.3-0.2 0.4-0.2 0.4-0.3 0.1-0.1 0.4-0.2 0.3-0.1 0.3-0.1 0.2 0 1.4-0.7 1.2-0.8 2.2-1.8-1.1 0.4-2.2 0.7-1 0.2-1.1 0.2-0.1 0.1-0.2 0.1-0.3-0.1-0.3-0.1v0.1q-0.1 0-0.2 0 0 0.1-0.2 0.1-0.1-0.1-0.5 0.1-0.2 0.2-0.3 0.2-0.1 0-0.2 0.1-0.1 0-0.2-0.1-0.3 0.3-1.4 0.4-1.1 0.1-1.5 0.1-0.1-0.1-0.2 0-0.1 0-0.2 0 0 0-0.1 0.1 0 0 0 0h-0.4q-0.3 0-0.6 0.1-0.2 0-0.4 0h-0.1q-0.1 0-0.2 0-0.1 0.1-0.2 0.1-0.1 0-0.1-0.1 0-0.1-0.2-0.1 0 0-0.2 0.1-0.1 0.1-0.1 0h-0.3q-0.2 0-0.2 0-0.1 0-0.1 0.1 0 0-0.1 0 0 0-0.1-0.1-0.1 0-0.3 0.1-0.1 0.1-0.3 0h-0.1q-0.2-0.1-0.2-0.1 0 0 0 0h-0.6q-0.4 0-0.8-0.2-0.5-0.3-0.8-0.3-0.1 0-0.1 0.1 0 0-0.1 0-0.1 0-0.1 0 0-0.1-0.1-0.1 0 0-0.1 0 0 0 0 0.1 0-0.1-0.1-0.1 0-0.1 0-0.1l-0.6-0.1q0-0.2-0.2-0.2 0-0.2-0.8-0.4-0.9-0.2-1-0.3-0.1 0-0.3-0.1-0.1-0.2-0.1-0.1h-0.1q-0.2 0-0.5-0.3-0.3-0.3-0.6-0.4-0.2-0.2-0.2-0.4l-0.1 0.1-0.1 0.4q0 0.1 0 0.3 0.1 0.2 0 0.3 0.2 0.1 0.2 0.3 0 0.2 0.1 0.2 0.1 0.2 0.1 0.4 0.2 0.3 0.2 0.5 0 0 0.4 0.2 0.3 0.2 0.3 0.3 0.1 0.1 0.2 0.1 0.1 0.1 0.1 0.2 0.1 0.1 0.1 0.2 0.1 0.2 0.1 0.3 0.1 0 0.2 0.1 0.1 0.1 0.3 0.5 0.3 0.2 0.5 0.3 0 0 0 0 0-0.1 0.1-0.1 0.1 0.1 0.3 0.4 0.2 0.2 0.3 0.2 0.1 0 0.1 0 0.6 0 1.1 0.2 0.6 0 1.1 0.1 0.1 0 0.2 0.2 0.2 0 0.4 0 0.5 0.1 1.3 0.1 0.8 0 1 0zm36.1 6.7q0 0-0.8 0-0.6 0-0.6-0.1-0.2-0.3-0.3-0.3-0.1 0-0.4-0.1 0 0-0.6-0.4-0.7-0.4-0.9-0.7-0.5 0.3-1 0.5-0.6 0.2-1.1 0.2-1.3 0-2.5-0.8-1.1-1-1.1-2.1 0-0.7 0.2-1.6 0.4-0.8 0.3-1 0.2-0.3 0.4-0.9 0.3-0.5 0.2-0.8 0.2-0.3 0.6-1.5 0.5-1.2 1-2.3 0.5-1.1 0.7-1.1v-0.5q0.1-0.4 0.4-0.3 0.2 0 0.2 0.4 0 0.9-0.2 1.8-0.2 0.9-0.2 2v0.2q0 0.9 0.2 1.7 0.2 0.8 0.1 1.7 0 0.1 0.1 0.3 0.1 0.1 0.2 0.3 0.4 1.1 0.9 2 0.5-0.4 1-0.8 0.5-0.4 0.9-0.8 0.5-0.1 0.6-0.4 0.3-0.2 0.4-0.6 0.7-0.7 1.3-1.5 0.7-0.8 1.4-1.5l0.1-0.1q0.2-0.5 0.7-0.3 0.1-0.5 0.4-1.1 0.4-0.6 0.9-1.2 0.5-0.6 0.9-1.2l2.7-4.4q0.4-0.5 0.6-1 0.3-0.5 0.6-1 0.2-0.2 0.4-0.3 0.3-0.2 0.3-0.2v-0.2q0-0.4 0.2-0.7 0.3-0.4 0.6-1 0.3-0.7 0.7-1.1 0.1-0.1 0.3-0.2 0.2-0.1 0.3-0.3 0-0.1-0.1-0.3-0.1-0.3 0.2-0.5l0.1-0.1v-0.1q0.6 0 0.5-0.3-0.1-0.3 0-0.7l0.2-0.2v-0.1q0.5-0.2 0.6-0.6 0.1-0.5 0.2-0.9 0.1-0.1 0.4-0.9 0.4-0.8 0.8-1.7 0.4-0.9 0.5-1.2 0.4-0.1 0.4-0.4 0-0.3 0-0.6 0.2-0.3 0.1-0.7 0-0.4 0.1-0.8 0.1-0.4 0.2-0.9 0.1-0.5 0.1-1-0.1-0.2-0.1-0.4 0-0.3 0.2-0.5 0.1-0.2 0.3-0.5v-0.1q0.1-0.1 0.3-0.5 0.3-0.4 0.5-0.4 0.3-0.1 0.4-0.1 0.4 0 0.7 0.4h0.1 0.3q0.2-0.3 0.2-1 0.2-0.8 0.2-1.2v-0.1q0.2-0.4 0.2-0.7 0.2-0.3 0-0.8 0.2-0.1 0.3-0.3 0.2-0.2 0.4-0.3 0.2 0.1 0.2 0.5 0 0.3-0.1 0.7 0 0.2 0 0.4-0.1 0.1-0.1 0.4-0.3 0.2-0.3 0.4 0 0.3 0.1 0.5 0.1 0.2 0.1 0.4-0.1 1-0.1 2.1 0 1.1 0 2.2 0 3.1 0.2 6.5 0.2 3.5 0.7 6.8 0.5 3.2 1.2 5.8v0.2q0 0.3 0.2 0.6 0.1 0.2 0.2 0.5v0.1l0.4 1q0 0.5 0.3 0.9 0.4 0.4 0.6 0.7 0.1 0.4 0.1 0.6 0.1 0.2 0.5 0.3l0.3 0.2h0.1q0.3 0.9 0.9 0.6v0.1q0.1-0.1 0.3-0.1 0.3 0 0.6 0.4 0.2 0.3 0.4 0.5h0.1q0.1 0 0.2-0.3 0.1-0.4 0.3-0.4 0.2 0 0.9-0.4 0.6-0.4 1.2-1 0.7-0.6 0.7-0.8l0.1-0.1q0.3-0.3 0.3-0.5 0-0.3 0.4-0.6l0.8-1.3q0.6-0.3 0.6-1.2 0.1-0.2 0.3-0.4 0.1-0.3 0.2-0.5v-0.1q0.3-0.3 0.5-0.4 0.2-0.1 0-0.6l0.6-1.6v-0.1l0.5-0.9q0.4-0.8 0.6-1.7 0.2-0.9 0.5-1.7 0.1-0.2 0.3-1 0.2-0.8 0.4-1.6 0.3-0.8 0.3-1 0-0.3 0.2-0.6 0.2-0.3 0.2-0.6 0.2-1.3 0.5-2.5 0.3-1.2 0.7-2.4-0.1-0.2-0.2-0.3 0-0.1 0-0.3h0.1l0.2-0.9q0-0.4 0.2-0.8 0.3-0.5 0-0.9-0.1-0.6-0.2-1.7-0.2-1.2-0.5-1.4-0.1-0.3-0.3-0.8-0.2-0.5-0.2-0.7 0-0.2 0.2-0.3 0.3-0.2 0.5-0.2 0.5 0 0.8 0.4 0.3 0.3 0.7 0.7 0.1 0.5 0.7 0.9v0.1q0.2 0.3 0.3 0.7h0.1q0 0.2-0.1 0.3-0.1 0.1-0.1 0.3 0.2 0.2 0.4 0.3 0.2 0 0.3 0 0.3 0.4 0.3 1 0 0.6 0.5 0.8 0.4 0.3 0.6 0.7 0.4 0.2 0.9 0.4 0.1 0 0.3 0 0.2 0.1 0.4 0h0.1q0.1-0.2 0.2-0.2 0.3 0 0.3 0.5 0 0.4-0.3 0.6l-0.2 0.1q-0.1-0.1-0.2-0.1-0.2 0-0.5 0.2-0.2 0.1-0.5 0.1-0.3-0.2-0.5-0.3-0.1-0.2-0.4-0.2h-0.2l-1.5-1.3q0 0-0.1 0 0 0 0 0-0.1 0-0.1 0.2 0 0.2 0 0.4 0 0.2 0 0.5 0 0.2 0 0.4 0 0.6 0 1.3-0.1 0.6-0.2 1.1-0.3 0.3-0.4 0.6-0.1 0.2 0.2 0.5 0 0.2-0.3 1.3-0.2 1.1-0.3 1.4-0.5 1.6-0.8 3-0.4 1.4-1.1 2.9-0.1 0.2-0.1 0.5 0 0.3-0.1 0.5v0.1q-0.4 1-0.8 2.1-0.4 1.1-1 2.1l-0.9 1.5q-0.2 0.5-0.5 0.8-0.3 0.4-0.5 0.9-0.4 0.6-0.7 1.3-0.4 0.6-0.9 1.2-0.1 0-0.3 0-0.3 0-0.5 0.3-0.1 0.3-0.2 0.4-0.1 0.1-0.2 0.1-0.5 0-0.5 0.3 0 0.2-0.1 0.4h-0.1q-0.7 0.5-1.5 0.7-0.8 0.3-1.6 0.3-1 0-1.6-0.3h-0.1q-0.3-0.7-1-0.4l-0.1-0.1q-0.3-0.3-0.7-0.5-0.4-0.3-0.8-0.6-1-1.2-2-3.1-0.9-1.9-1.3-3.4v-0.2q0 0 0 0 0.1-0.1 0.1-0.2 0-0.2-0.2-0.4 0-0.2-0.2-0.3 0-0.2-0.2-0.8-0.1-0.8-0.2-1.5-0.2-0.9-0.2-1.2 0-0.5 0.1-0.7 0.1-0.3-0.2-0.6v-0.2q0-0.5-0.1-1-0.1-0.6-0.1-1v-0.1q0-0.7-0.1-1.2 0-0.6 0-1.2-0.1-0.6-0.1-1.2 0.1-0.6 0.1-1.2v-1q0-0.9-0.2-0.9-0.2 0-0.7 1.1-0.2 0.2-0.7 1.3-0.5 0.9-1.1 2.1-0.5 1-1 1.9-0.4 0.8-0.5 0.8-0.1 0.5-0.5 0.9v0.1l-1.2 2.1v0.1q-0.1 0.1-0.3 0.3 0 0.2-0.2 0.4v0.1l-0.8 1.3v0.1q-0.3 0.1-0.5 0.2-0.2 0.2 0 0.6v0.1l-0.6 1q-0.5 0.3-0.7 0.8-0.2 0.4-0.4 0.9-0.4 0.6-0.8 1.2-0.3 0.7-0.8 1.3-0.3 0.4-1.2 1.6-0.9 1.1-1 1.6h-0.1q-0.1 0.3-0.3 0.6-0.3 0.2-0.4 0.4-1.2 1.6-2.9 3.5-1.7 1.9-3.5 2.9 0.6 0.7 1.4 1.1 0.4 0 0.4 0.1 0 0.1 0.1 0.3h0.2q0.2 0 0.5 0 0.4-0.1 0.5-0.1 0.4 0 0.4 0.3 0 0.3-0.4 0.3zm-6.5-2.4q0.3 0 0.7-0.2 0.5-0.2 1.1-0.5-0.1-0.1-0.1-0.2 0-0.1-0.1-0.1-0.1-0.3-0.2-0.5-0.1-0.2-0.2-0.4-0.2-0.4-0.3-0.8-0.1-0.4-0.2-0.7h-0.1q-0.2-0.6-0.4-2 0-1.5 0-2.2-0.1 0.4-0.4 1.3-0.2 1-0.4 1.9-0.1 0.9-0.1 1.2-0.4 0.2-0.4 0.5 0 0.1 0 0.2 0.2 0.2 0.2 0.4 0 2.1 0.9 2.1z"/></svg>