<svg xmlns="http://www.w3.org/2000/svg" width="25" height="25" viewBox="0 0 25 25" fill="none">
  <g clip-path="url(#clip0_4217_48583)">
    <path d="M20.7422 6.88281H17.7422V4.88281C17.7422 3.77281 16.8522 2.88281 15.7422 2.88281H9.74219C8.63219 2.88281 7.74219 3.77281 7.74219 4.88281V6.88281H4.74219C3.63219 6.88281 2.74219 7.77281 2.74219 8.88281V19.8828C2.74219 20.9928 3.63219 21.8828 4.74219 21.8828H20.7422C21.8522 21.8828 22.7422 20.9928 22.7422 19.8828V8.88281C22.7422 7.77281 21.8522 6.88281 20.7422 6.88281ZM9.74219 4.88281H15.7422V6.88281H9.74219V4.88281ZM20.7422 19.8828H4.74219V17.8828H20.7422V19.8828ZM20.7422 14.8828H4.74219V9.88281C4.74219 9.33281 5.19219 8.88281 5.74219 8.88281H7.74219V9.88281C7.74219 10.4328 8.19219 10.8828 8.74219 10.8828C9.29219 10.8828 9.74219 10.4328 9.74219 9.88281V8.88281H15.7422V9.88281C15.7422 10.4328 16.1922 10.8828 16.7422 10.8828C17.2922 10.8828 17.7422 10.4328 17.7422 9.88281V8.88281H19.7422C20.2922 8.88281 20.7422 9.33281 20.7422 9.88281V14.8828Z" fill="#64748B"/>
  </g>
  <defs>
    <clipPath id="clip0_4217_48583">
      <rect width="24" height="24" fill="white" transform="translate(0.742188 0.882812)"/>
    </clipPath>
  </defs>
</svg>