<svg xmlns="http://www.w3.org/2000/svg" width="25" height="25" viewBox="0 0 25 25" fill="none">
  <g clip-path="url(#clip0_4217_48599)">
    <path d="M12.7422 10.8828C11.6422 10.8828 10.7422 11.7828 10.7422 12.8828C10.7422 13.9828 11.6422 14.8828 12.7422 14.8828C13.8422 14.8828 14.7422 13.9828 14.7422 12.8828C14.7422 11.7828 13.8422 10.8828 12.7422 10.8828ZM19.7422 3.88281H5.74219C4.63219 3.88281 3.74219 4.78281 3.74219 5.88281V19.8828C3.74219 20.9828 4.63219 21.8828 5.74219 21.8828H19.7422C20.8522 21.8828 21.7422 20.9828 21.7422 19.8828V5.88281C21.7422 4.78281 20.8522 3.88281 19.7422 3.88281ZM17.9922 12.8828C17.9922 13.1128 17.9722 13.3428 17.9422 13.5628L19.4222 14.7228C19.5522 14.8328 19.5922 15.0228 19.5022 15.1728L18.1022 17.5928C18.0122 17.7428 17.8322 17.8028 17.6722 17.7428L15.9322 17.0428C15.5722 17.3228 15.1722 17.5528 14.7522 17.7328L14.4922 19.5828C14.4622 19.7528 14.3122 19.8828 14.1422 19.8828H11.3422C11.1722 19.8828 11.0222 19.7528 10.9922 19.5928L10.7322 17.7428C10.3022 17.5628 9.91219 17.3328 9.55219 17.0528L7.81219 17.7528C7.65219 17.8128 7.47219 17.7528 7.38219 17.6028L5.98219 15.1828C5.89219 15.0328 5.93219 14.8428 6.06219 14.7328L7.54219 13.5728C7.51219 13.3428 7.49219 13.1128 7.49219 12.8828C7.49219 12.6528 7.51219 12.4228 7.54219 12.2028L6.06219 11.0428C5.93219 10.9328 5.89219 10.7428 5.98219 10.5928L7.38219 8.17281C7.47219 8.02281 7.65219 7.96281 7.81219 8.02281L9.55219 8.72281C9.91219 8.44281 10.3122 8.21281 10.7322 8.03281L10.9922 6.18281C11.0222 6.01281 11.1722 5.88281 11.3422 5.88281H14.1422C14.3122 5.88281 14.4622 6.01281 14.4922 6.17281L14.7522 8.02281C15.1822 8.20281 15.5722 8.43281 15.9322 8.71281L17.6722 8.01281C17.8322 7.95281 18.0122 8.01281 18.1022 8.16281L19.5022 10.5828C19.5922 10.7328 19.5522 10.9228 19.4222 11.0328L17.9422 12.1928C17.9722 12.4228 17.9922 12.6528 17.9922 12.8828Z" fill="#64748B"/>
  </g>
  <defs>
    <clipPath id="clip0_4217_48599">
      <rect width="24" height="24" fill="white" transform="translate(0.742188 0.882812)"/>
    </clipPath>
  </defs>
</svg>