<svg xmlns="http://www.w3.org/2000/svg" width="25" height="25" viewBox="0 0 25 25" fill="none">
  <g clip-path="url(#clip0_4217_48610)">
    <path d="M9.74219 13.1172C11.9513 13.1172 13.7422 11.3263 13.7422 9.11719C13.7422 6.90805 11.9513 5.11719 9.74219 5.11719C7.53305 5.11719 5.74219 6.90805 5.74219 9.11719C5.74219 11.3263 7.53305 13.1172 9.74219 13.1172Z" fill="#64748B"/>
    <path d="M9.74219 15.1158C7.07219 15.1158 1.74219 16.4558 1.74219 19.1158V20.1158C1.74219 20.6658 2.19219 21.1158 2.74219 21.1158H16.7422C17.2922 21.1158 17.7422 20.6658 17.7422 20.1158V19.1158C17.7422 16.4558 12.4122 15.1158 9.74219 15.1158ZM16.2122 7.88583C16.5322 8.67583 16.5322 9.55583 16.2122 10.3458C16.0222 10.8158 16.1022 11.3458 16.4622 11.7058L16.4922 11.7358C17.0722 12.3158 18.0622 12.1958 18.4422 11.4658C19.2022 10.0158 19.2022 8.31583 18.4222 6.80583C18.0422 6.06583 17.0422 5.92583 16.4522 6.51583L16.4422 6.52583C16.1022 6.87583 16.0222 7.41583 16.2122 7.88583ZM19.9222 3.00583C19.5222 3.40583 19.4622 4.02583 19.7922 4.48583C21.7622 7.22583 21.7522 10.8958 19.7622 13.7358C19.4422 14.1858 19.5122 14.8058 19.9022 15.1958L19.9322 15.2258C20.4222 15.7158 21.2522 15.6758 21.6722 15.1258C24.4222 11.5858 24.4322 6.75583 21.6722 3.10583C21.2522 2.55583 20.4122 2.51583 19.9222 3.00583Z" fill="#64748B"/>
  </g>
  <defs>
    <clipPath id="clip0_4217_48610">
      <rect width="24" height="24" fill="white" transform="translate(0.742188 0.117188)"/>
    </clipPath>
  </defs>
</svg>