<svg xmlns="http://www.w3.org/2000/svg" width="21" height="21" viewBox="0 0 21 21" fill="none">
  <path fill-rule="evenodd" clip-rule="evenodd" d="M10.7422 0.914062C5.22219 0.914062 0.742188 5.19323 0.742188 10.4658C0.742188 15.7383 5.22219 20.0175 10.7422 20.0175C16.2622 20.0175 20.7422 15.7383 20.7422 10.4658C20.7422 5.19323 16.2622 0.914062 10.7422 0.914062ZM15.2822 14.1432L14.5922 14.8022C14.2022 15.1748 13.5722 15.1748 13.1822 14.8022L10.1322 11.889C8.91219 12.2997 7.49219 12.0514 6.51219 11.1153C5.40219 10.055 5.21219 8.45036 5.92219 7.19909L8.27219 9.44374L9.68219 8.09695L7.32219 5.8523C8.64219 5.17413 10.3122 5.35561 11.4222 6.41585C12.4022 7.35192 12.6622 8.70826 12.2322 9.87357L15.2822 12.7868C15.6722 13.1594 15.6722 13.7707 15.2822 14.1432Z" fill="#64748B"/>
</svg>