<svg xmlns="http://www.w3.org/2000/svg" width="23" height="23" viewBox="0 0 23 23" fill="none">
  <g clip-path="url(#clip0_4217_48590)">
    <path d="M21.8255 10.9779L17.2422 10.9688C16.738 10.9688 16.3255 11.3812 16.3255 11.8854V20.1354C16.3255 20.6396 16.738 21.0521 17.2422 21.0521H21.8255C22.3297 21.0521 22.7422 20.6396 22.7422 20.1354V11.8854C22.7422 11.3812 22.3297 10.9779 21.8255 10.9779ZM21.8255 19.2188H17.2422V12.8021H21.8255V19.2188ZM19.0755 2.71875H2.57552C1.56719 2.71875 0.742188 3.54375 0.742188 4.55208V15.5521C0.742188 16.5604 1.56719 17.3854 2.57552 17.3854H8.99219V19.2188H8.07552C7.57135 19.2188 7.15885 19.6312 7.15885 20.1354C7.15885 20.6396 7.57135 21.0521 8.07552 21.0521H13.5755C14.0797 21.0521 14.4922 20.6396 14.4922 20.1354C14.4922 19.6312 14.0797 19.2188 13.5755 19.2188H12.6589V17.3854H13.5755C14.0797 17.3854 14.4922 16.9729 14.4922 16.4687C14.4922 15.9646 14.0797 15.5521 13.5755 15.5521H3.49219C2.98802 15.5521 2.57552 15.1396 2.57552 14.6354V5.46875C2.57552 4.96458 2.98802 4.55208 3.49219 4.55208H18.1589C18.663 4.55208 19.0755 4.96458 19.0755 5.46875V8.21875C19.0755 8.72292 19.488 9.13542 19.9922 9.13542C20.4964 9.13542 20.9089 8.72292 20.9089 8.21875V4.55208C20.9089 3.54375 20.0839 2.71875 19.0755 2.71875ZM11.7147 9.13542L10.8255 6.38542L9.93635 9.13542H7.15885L9.42302 10.7487L8.56135 13.4162L10.8255 11.7662L13.0897 13.4162L12.228 10.7487L14.4922 9.13542H11.7147Z" fill="#64748B"/>
  </g>
  <defs>
    <clipPath id="clip0_4217_48590">
      <rect width="22" height="22" fill="white" transform="translate(0.742188 0.882812)"/>
    </clipPath>
  </defs>
</svg>