<svg xmlns="http://www.w3.org/2000/svg" width="3" height="738" viewBox="0 0 3 738" fill="none">
  <path d="M1.02731 737C1.02731 737.276 1.25117 737.5 1.52731 737.5C1.80345 737.5 2.02731 737.276 2.02731 737L1.02731 737ZM1.02734 -2.25658e-08L1.02734 2.00272L2.02734 2.00272L2.02734 2.25658e-08L1.02734 -2.25658e-08ZM1.02734 6.00815L1.02734 10.0136L2.02734 10.0136L2.02734 6.00815L1.02734 6.00815ZM1.02734 14.019L1.02734 18.0245L2.02734 18.0245L2.02734 14.019L1.02734 14.019ZM1.02734 22.0299L1.02734 26.0353L2.02734 26.0353L2.02734 22.0299L1.02734 22.0299ZM1.02734 30.0408L1.02734 34.0462L2.02734 34.0462L2.02734 30.0408L1.02734 30.0408ZM1.02734 38.0516L1.02734 42.0571L2.02734 42.0571L2.02734 38.0516L1.02734 38.0516ZM1.02734 46.0625L1.02734 50.0679L2.02734 50.0679L2.02734 46.0625L1.02734 46.0625ZM1.02734 54.0734L1.02734 58.0788L2.02734 58.0788L2.02734 54.0734L1.02734 54.0734ZM1.02734 62.0843L1.02734 66.0897L2.02734 66.0897L2.02734 62.0843L1.02734 62.0843ZM1.02734 70.0951L1.02734 74.1005L2.02734 74.1005L2.02734 70.0951L1.02734 70.0951ZM1.02734 78.106L1.02734 82.1114L2.02734 82.1114L2.02734 78.106L1.02734 78.106ZM1.02734 86.1168L1.02734 90.1223L2.02734 90.1223L2.02734 86.1168L1.02734 86.1168ZM1.02734 94.1277L1.02734 98.1331L2.02734 98.1331L2.02734 94.1277L1.02734 94.1277ZM1.02734 102.139L1.02734 106.144L2.02734 106.144L2.02734 102.139L1.02734 102.139ZM1.02734 110.149L1.02734 114.155L2.02734 114.155L2.02734 110.149L1.02734 110.149ZM1.02734 118.16L1.02734 122.166L2.02734 122.166L2.02734 118.16L1.02734 118.16ZM1.02734 126.171L1.02734 130.177L2.02734 130.177L2.02734 126.171L1.02734 126.171ZM1.02734 134.182L1.02734 138.187L2.02734 138.187L2.02734 134.182L1.02734 134.182ZM1.02734 142.193L1.02734 146.198L2.02734 146.198L2.02734 142.193L1.02734 142.193ZM1.02734 150.204L1.02734 154.209L2.02734 154.209L2.02734 150.204L1.02734 150.204ZM1.02734 158.215L1.02734 162.22L2.02734 162.22L2.02734 158.215L1.02734 158.215ZM1.02734 166.225L1.02734 170.231L2.02734 170.231L2.02734 166.225L1.02734 166.225ZM1.02734 174.236L1.02734 178.242L2.02734 178.242L2.02734 174.236L1.02734 174.236ZM1.02734 182.247L1.02734 186.253L2.02734 186.253L2.02734 182.247L1.02734 182.247ZM1.02734 190.258L1.02734 194.264L2.02734 194.264L2.02734 190.258L1.02734 190.258ZM1.02734 198.269L1.02734 202.274L2.02734 202.274L2.02734 198.269L1.02734 198.269ZM1.02734 206.28L1.02733 210.285L2.02733 210.285L2.02734 206.28L1.02734 206.28ZM1.02733 214.291L1.02733 218.296L2.02733 218.296L2.02733 214.291L1.02733 214.291ZM1.02733 222.302L1.02733 226.307L2.02733 226.307L2.02733 222.302L1.02733 222.302ZM1.02733 230.312L1.02733 234.318L2.02733 234.318L2.02733 230.312L1.02733 230.312ZM1.02733 238.323L1.02733 242.329L2.02733 242.329L2.02733 238.323L1.02733 238.323ZM1.02733 246.334L1.02733 250.34L2.02733 250.34L2.02733 246.334L1.02733 246.334ZM1.02733 254.345L1.02733 258.35L2.02733 258.35L2.02733 254.345L1.02733 254.345ZM1.02733 262.356L1.02733 266.361L2.02733 266.361L2.02733 262.356L1.02733 262.356ZM1.02733 270.367L1.02733 274.372L2.02733 274.372L2.02733 270.367L1.02733 270.367ZM1.02733 278.378L1.02733 282.383L2.02733 282.383L2.02733 278.378L1.02733 278.378ZM1.02733 286.388L1.02733 290.394L2.02733 290.394L2.02733 286.388L1.02733 286.388ZM1.02733 294.399L1.02733 298.405L2.02733 298.405L2.02733 294.399L1.02733 294.399ZM1.02733 302.41L1.02733 306.416L2.02733 306.416L2.02733 302.41L1.02733 302.41ZM1.02733 310.421L1.02733 314.426L2.02733 314.426L2.02733 310.421L1.02733 310.421ZM1.02733 318.432L1.02733 322.437L2.02733 322.437L2.02733 318.432L1.02733 318.432ZM1.02733 326.443L1.02733 330.448L2.02733 330.448L2.02733 326.443L1.02733 326.443ZM1.02733 334.454L1.02733 338.459L2.02733 338.459L2.02733 334.454L1.02733 334.454ZM1.02733 342.465L1.02733 346.47L2.02733 346.47L2.02733 342.465L1.02733 342.465ZM1.02733 350.475L1.02733 354.481L2.02733 354.481L2.02733 350.475L1.02733 350.475ZM1.02733 358.486L1.02733 362.492L2.02733 362.492L2.02733 358.486L1.02733 358.486ZM1.02733 366.497L1.02733 370.503L2.02733 370.503L2.02733 366.497L1.02733 366.497ZM1.02733 374.508L1.02733 378.513L2.02733 378.513L2.02733 374.508L1.02733 374.508ZM1.02733 382.519L1.02733 386.524L2.02733 386.524L2.02733 382.519L1.02733 382.519ZM1.02733 390.53L1.02733 394.535L2.02733 394.535L2.02733 390.53L1.02733 390.53ZM1.02733 398.541L1.02733 402.546L2.02733 402.546L2.02733 398.541L1.02733 398.541ZM1.02733 406.551L1.02733 410.557L2.02733 410.557L2.02733 406.551L1.02733 406.551ZM1.02733 414.562L1.02733 418.568L2.02733 418.568L2.02733 414.562L1.02733 414.562ZM1.02733 422.573L1.02733 426.579L2.02733 426.579L2.02733 422.573L1.02733 422.573ZM1.02733 430.584L1.02733 434.589L2.02733 434.589L2.02733 430.584L1.02733 430.584ZM1.02733 438.595L1.02733 442.6L2.02733 442.6L2.02733 438.595L1.02733 438.595ZM1.02732 446.606L1.02732 450.611L2.02732 450.611L2.02732 446.606L1.02732 446.606ZM1.02732 454.617L1.02732 458.622L2.02732 458.622L2.02732 454.617L1.02732 454.617ZM1.02732 462.627L1.02732 466.633L2.02732 466.633L2.02732 462.627L1.02732 462.627ZM1.02732 470.638L1.02732 474.644L2.02732 474.644L2.02732 470.638L1.02732 470.638ZM1.02732 478.649L1.02732 482.655L2.02732 482.655L2.02732 478.649L1.02732 478.649ZM1.02732 486.66L1.02732 490.665L2.02732 490.665L2.02732 486.66L1.02732 486.66ZM1.02732 494.671L1.02732 498.676L2.02732 498.676L2.02732 494.671L1.02732 494.671ZM1.02732 502.682L1.02732 506.687L2.02732 506.687L2.02732 502.682L1.02732 502.682ZM1.02732 510.693L1.02732 514.698L2.02732 514.698L2.02732 510.693L1.02732 510.693ZM1.02732 518.704L1.02732 522.709L2.02732 522.709L2.02732 518.704L1.02732 518.704ZM1.02732 526.714L1.02732 530.72L2.02732 530.72L2.02732 526.714L1.02732 526.714ZM1.02732 534.725L1.02732 538.731L2.02732 538.731L2.02732 534.725L1.02732 534.725ZM1.02732 542.736L1.02732 546.742L2.02732 546.742L2.02732 542.736L1.02732 542.736ZM1.02732 550.747L1.02732 554.752L2.02732 554.752L2.02732 550.747L1.02732 550.747ZM1.02732 558.758L1.02732 562.763L2.02732 562.763L2.02732 558.758L1.02732 558.758ZM1.02732 566.769L1.02732 570.774L2.02732 570.774L2.02732 566.769L1.02732 566.769ZM1.02732 574.78L1.02732 578.785L2.02732 578.785L2.02732 574.78L1.02732 574.78ZM1.02732 582.79L1.02732 586.796L2.02732 586.796L2.02732 582.79L1.02732 582.79ZM1.02732 590.801L1.02732 594.807L2.02732 594.807L2.02732 590.801L1.02732 590.801ZM1.02732 598.812L1.02732 602.818L2.02732 602.818L2.02732 598.812L1.02732 598.812ZM1.02732 606.823L1.02732 610.828L2.02732 610.828L2.02732 606.823L1.02732 606.823ZM1.02732 614.834L1.02732 618.839L2.02732 618.839L2.02732 614.834L1.02732 614.834ZM1.02732 622.845L1.02732 626.85L2.02732 626.85L2.02732 622.845L1.02732 622.845ZM1.02732 630.856L1.02732 634.861L2.02732 634.861L2.02732 630.856L1.02732 630.856ZM1.02732 638.867L1.02732 642.872L2.02732 642.872L2.02732 638.867L1.02732 638.867ZM1.02732 646.877L1.02732 650.883L2.02732 650.883L2.02732 646.877L1.02732 646.877ZM1.02732 654.888L1.02732 658.894L2.02732 658.894L2.02732 654.888L1.02732 654.888ZM1.02732 662.899L1.02732 666.905L2.02732 666.905L2.02732 662.899L1.02732 662.899ZM1.02732 670.91L1.02732 674.915L2.02732 674.915L2.02732 670.91L1.02732 670.91ZM1.02732 678.921L1.02731 682.926L2.02731 682.926L2.02732 678.921L1.02732 678.921ZM1.02731 686.932L1.02731 690.937L2.02731 690.937L2.02731 686.932L1.02731 686.932ZM1.02731 694.943L1.02731 698.948L2.02731 698.948L2.02731 694.943L1.02731 694.943ZM1.02731 702.953L1.02731 706.959L2.02731 706.959L2.02731 702.953L1.02731 702.953ZM1.02731 710.964L1.02731 714.97L2.02731 714.97L2.02731 710.964L1.02731 710.964ZM1.02731 718.975L1.02731 722.981L2.02731 722.981L2.02731 718.975L1.02731 718.975ZM1.02731 726.986L1.02731 730.991L2.02731 730.991L2.02731 726.986L1.02731 726.986ZM1.02731 734.997L1.02731 737L2.02731 737L2.02731 734.997L1.02731 734.997ZM0.527313 737C0.527313 737.552 0.975028 738 1.52731 738C2.0796 738 2.52731 737.552 2.52731 737L0.527313 737ZM0.527344 -4.51316e-08L0.527344 2.00272L2.52734 2.00272L2.52734 4.51316e-08L0.527344 -4.51316e-08ZM0.527343 6.00815L0.527343 10.0136L2.52734 10.0136L2.52734 6.00815L0.527343 6.00815ZM0.527343 14.019L0.527343 18.0245L2.52734 18.0245L2.52734 14.019L0.527343 14.019ZM0.527343 22.0299L0.527343 26.0353L2.52734 26.0353L2.52734 22.0299L0.527343 22.0299ZM0.527342 30.0408L0.527342 34.0462L2.52734 34.0462L2.52734 30.0408L0.527342 30.0408ZM0.527342 38.0516L0.527342 42.0571L2.52734 42.0571L2.52734 38.0516L0.527342 38.0516ZM0.527342 46.0625L0.527342 50.0679L2.52734 50.0679L2.52734 46.0625L0.527342 46.0625ZM0.527341 54.0734L0.527341 58.0788L2.52734 58.0788L2.52734 54.0734L0.527341 54.0734ZM0.527341 62.0843L0.527341 66.0897L2.52734 66.0897L2.52734 62.0843L0.527341 62.0843ZM0.527341 70.0951L0.527341 74.1005L2.52734 74.1005L2.52734 70.0951L0.527341 70.0951ZM0.52734 78.106L0.52734 82.1114L2.52734 82.1114L2.52734 78.106L0.52734 78.106ZM0.52734 86.1168L0.52734 90.1223L2.52734 90.1223L2.52734 86.1168L0.52734 86.1168ZM0.52734 94.1277L0.52734 98.1331L2.52734 98.1331L2.52734 94.1277L0.52734 94.1277ZM0.527339 102.139L0.527339 106.144L2.52734 106.144L2.52734 102.139L0.527339 102.139ZM0.527339 110.149L0.527339 114.155L2.52734 114.155L2.52734 110.149L0.527339 110.149ZM0.527339 118.16L0.527339 122.166L2.52734 122.166L2.52734 118.16L0.527339 118.16ZM0.527338 126.171L0.527338 130.177L2.52734 130.177L2.52734 126.171L0.527338 126.171ZM0.527338 134.182L0.527338 138.187L2.52734 138.187L2.52734 134.182L0.527338 134.182ZM0.527338 142.193L0.527338 146.198L2.52734 146.198L2.52734 142.193L0.527338 142.193ZM0.527337 150.204L0.527337 154.209L2.52734 154.209L2.52734 150.204L0.527337 150.204ZM0.527337 158.215L0.527337 162.22L2.52734 162.22L2.52734 158.215L0.527337 158.215ZM0.527337 166.225L0.527337 170.231L2.52734 170.231L2.52734 166.225L0.527337 166.225ZM0.527336 174.236L0.527336 178.242L2.52734 178.242L2.52734 174.236L0.527336 174.236ZM0.527336 182.247L0.527336 186.253L2.52734 186.253L2.52734 182.247L0.527336 182.247ZM0.527336 190.258L0.527336 194.264L2.52734 194.264L2.52734 190.258L0.527336 190.258ZM0.527335 198.269L0.527335 202.274L2.52734 202.274L2.52734 198.269L0.527335 198.269ZM0.527335 206.28L0.527335 210.285L2.52733 210.285L2.52734 206.28L0.527335 206.28ZM0.527335 214.291L0.527335 218.296L2.52733 218.296L2.52733 214.291L0.527335 214.291ZM0.527334 222.302L0.527334 226.307L2.52733 226.307L2.52733 222.302L0.527334 222.302ZM0.527334 230.312L0.527334 234.318L2.52733 234.318L2.52733 230.312L0.527334 230.312ZM0.527334 238.323L0.527333 242.329L2.52733 242.329L2.52733 238.323L0.527334 238.323ZM0.527333 246.334L0.527333 250.34L2.52733 250.34L2.52733 246.334L0.527333 246.334ZM0.527333 254.345L0.527333 258.35L2.52733 258.35L2.52733 254.345L0.527333 254.345ZM0.527333 262.356L0.527332 266.361L2.52733 266.361L2.52733 262.356L0.527333 262.356ZM0.527332 270.367L0.527332 274.372L2.52733 274.372L2.52733 270.367L0.527332 270.367ZM0.527332 278.378L0.527332 282.383L2.52733 282.383L2.52733 278.378L0.527332 278.378ZM0.527332 286.388L0.527331 290.394L2.52733 290.394L2.52733 286.388L0.527332 286.388ZM0.527331 294.399L0.527331 298.405L2.52733 298.405L2.52733 294.399L0.527331 294.399ZM0.527331 302.41L0.527331 306.416L2.52733 306.416L2.52733 302.41L0.527331 302.41ZM0.527331 310.421L0.52733 314.426L2.52733 314.426L2.52733 310.421L0.527331 310.421ZM0.52733 318.432L0.52733 322.437L2.52733 322.437L2.52733 318.432L0.52733 318.432ZM0.52733 326.443L0.52733 330.448L2.52733 330.448L2.52733 326.443L0.52733 326.443ZM0.52733 334.454L0.527329 338.459L2.52733 338.459L2.52733 334.454L0.52733 334.454ZM0.527329 342.465L0.527329 346.47L2.52733 346.47L2.52733 342.465L0.527329 342.465ZM0.527329 350.475L0.527329 354.481L2.52733 354.481L2.52733 350.475L0.527329 350.475ZM0.527329 358.486L0.527328 362.492L2.52733 362.492L2.52733 358.486L0.527329 358.486ZM0.527328 366.497L0.527328 370.503L2.52733 370.503L2.52733 366.497L0.527328 366.497ZM0.527328 374.508L0.527328 378.513L2.52733 378.513L2.52733 374.508L0.527328 374.508ZM0.527328 382.519L0.527327 386.524L2.52733 386.524L2.52733 382.519L0.527328 382.519ZM0.527327 390.53L0.527327 394.535L2.52733 394.535L2.52733 390.53L0.527327 390.53ZM0.527327 398.541L0.527327 402.546L2.52733 402.546L2.52733 398.541L0.527327 398.541ZM0.527327 406.551L0.527326 410.557L2.52733 410.557L2.52733 406.551L0.527327 406.551ZM0.527326 414.562L0.527326 418.568L2.52733 418.568L2.52733 414.562L0.527326 414.562ZM0.527326 422.573L0.527326 426.579L2.52733 426.579L2.52733 422.573L0.527326 422.573ZM0.527326 430.584L0.527325 434.589L2.52733 434.589L2.52733 430.584L0.527326 430.584ZM0.527325 438.595L0.527325 442.6L2.52733 442.6L2.52733 438.595L0.527325 438.595ZM0.527325 446.606L0.527325 450.611L2.52732 450.611L2.52732 446.606L0.527325 446.606ZM0.527325 454.617L0.527324 458.622L2.52732 458.622L2.52732 454.617L0.527325 454.617ZM0.527324 462.627L0.527324 466.633L2.52732 466.633L2.52732 462.627L0.527324 462.627ZM0.527324 470.638L0.527324 474.644L2.52732 474.644L2.52732 470.638L0.527324 470.638ZM0.527323 478.649L0.527323 482.655L2.52732 482.655L2.52732 478.649L0.527323 478.649ZM0.527323 486.66L0.527323 490.665L2.52732 490.665L2.52732 486.66L0.527323 486.66ZM0.527323 494.671L0.527323 498.676L2.52732 498.676L2.52732 494.671L0.527323 494.671ZM0.527322 502.682L0.527322 506.687L2.52732 506.687L2.52732 502.682L0.527322 502.682ZM0.527322 510.693L0.527322 514.698L2.52732 514.698L2.52732 510.693L0.527322 510.693ZM0.527322 518.704L0.527322 522.709L2.52732 522.709L2.52732 518.704L0.527322 518.704ZM0.527321 526.714L0.527321 530.72L2.52732 530.72L2.52732 526.714L0.527321 526.714ZM0.527321 534.725L0.527321 538.731L2.52732 538.731L2.52732 534.725L0.527321 534.725ZM0.527321 542.736L0.527321 546.742L2.52732 546.742L2.52732 542.736L0.527321 542.736ZM0.52732 550.747L0.52732 554.752L2.52732 554.752L2.52732 550.747L0.52732 550.747ZM0.52732 558.758L0.52732 562.763L2.52732 562.763L2.52732 558.758L0.52732 558.758ZM0.52732 566.769L0.52732 570.774L2.52732 570.774L2.52732 566.769L0.52732 566.769ZM0.527319 574.78L0.527319 578.785L2.52732 578.785L2.52732 574.78L0.527319 574.78ZM0.527319 582.79L0.527319 586.796L2.52732 586.796L2.52732 582.79L0.527319 582.79ZM0.527319 590.801L0.527319 594.807L2.52732 594.807L2.52732 590.801L0.527319 590.801ZM0.527318 598.812L0.527318 602.818L2.52732 602.818L2.52732 598.812L0.527318 598.812ZM0.527318 606.823L0.527318 610.828L2.52732 610.828L2.52732 606.823L0.527318 606.823ZM0.527318 614.834L0.527318 618.839L2.52732 618.839L2.52732 614.834L0.527318 614.834ZM0.527317 622.845L0.527317 626.85L2.52732 626.85L2.52732 622.845L0.527317 622.845ZM0.527317 630.856L0.527317 634.861L2.52732 634.861L2.52732 630.856L0.527317 630.856ZM0.527317 638.867L0.527317 642.872L2.52732 642.872L2.52732 638.867L0.527317 638.867ZM0.527316 646.877L0.527316 650.883L2.52732 650.883L2.52732 646.877L0.527316 646.877ZM0.527316 654.888L0.527316 658.894L2.52732 658.894L2.52732 654.888L0.527316 654.888ZM0.527316 662.899L0.527316 666.905L2.52732 666.905L2.52732 662.899L0.527316 662.899ZM0.527315 670.91L0.527315 674.915L2.52732 674.915L2.52732 670.91L0.527315 670.91ZM0.527315 678.921L0.527315 682.926L2.52731 682.926L2.52732 678.921L0.527315 678.921ZM0.527315 686.932L0.527314 690.937L2.52731 690.937L2.52731 686.932L0.527315 686.932ZM0.527314 694.943L0.527314 698.948L2.52731 698.948L2.52731 694.943L0.527314 694.943ZM0.527314 702.953L0.527314 706.959L2.52731 706.959L2.52731 702.953L0.527314 702.953ZM0.527314 710.964L0.527313 714.97L2.52731 714.97L2.52731 710.964L0.527314 710.964ZM0.527313 718.975L0.527313 722.981L2.52731 722.981L2.52731 718.975L0.527313 718.975ZM0.527313 726.986L0.527313 730.991L2.52731 730.991L2.52731 726.986L0.527313 726.986ZM0.527313 734.997L0.527313 737L2.52731 737L2.52731 734.997L0.527313 734.997Z" fill="#CBD5E1"/>
</svg>