<svg xmlns="http://www.w3.org/2000/svg" width="48" height="48" viewBox="0 0 48 48" fill="none">
  <rect width="48" height="48" rx="24" fill="#CBD5E1"/>
  <rect x="0.6" y="0.6" width="46.8" height="46.8" rx="23.4" fill="white" stroke="#E2E8F0" stroke-width="1.2"/>
  <path d="M26.07 16.9548C28.26 17.6348 30 19.3748 30.68 21.5648C30.87 22.1948 31.44 22.6348 32.09 22.6348H32.13C33.13 22.6348 33.85 21.6748 33.56 20.7248C32.59 17.5448 30.08 15.0348 26.9 14.0648C25.96 13.7748 25 14.4948 25 15.4948V15.5348C25 16.1948 25.44 16.7648 26.07 16.9548ZM30.68 25.7048C30 27.9048 28.26 29.6348 26.07 30.3148C25.44 30.5048 25 31.0748 25 31.7248V31.7648C25 32.7648 25.96 33.4848 26.91 33.1948C30.09 32.2248 32.6 29.7148 33.57 26.5348C33.86 25.5848 33.14 24.6248 32.15 24.6248H32.1C31.44 24.6348 30.87 25.0748 30.68 25.7048ZM23 31.7448C23 31.0748 22.55 30.5048 21.91 30.3048C19.07 29.4148 17 26.7648 17 23.6348C17 20.5048 19.07 17.8548 21.91 16.9648C22.55 16.7648 23 16.1948 23 15.5248V15.5148C23 14.5148 22.03 13.7748 21.07 14.0748C16.98 15.3248 14 19.1348 14 23.6348C14 28.1348 16.98 31.9448 21.07 33.1948C22.03 33.4948 23 32.7548 23 31.7448Z" fill="#8C55DD"/>
</svg>