<svg xmlns="http://www.w3.org/2000/svg" width="49" height="48" viewBox="0 0 49 48" fill="none">
  <rect x="0.5" width="48" height="48" rx="24" fill="#CBD5E1"/>
  <rect x="1.1" y="0.6" width="46.8" height="46.8" rx="23.4" fill="white" stroke="#E2E8F0" stroke-width="1.2"/>
  <path d="M26.57 16.9548C28.76 17.6348 30.5 19.3748 31.18 21.5648C31.37 22.1948 31.94 22.6348 32.59 22.6348H32.63C33.63 22.6348 34.35 21.6748 34.06 20.7248C33.09 17.5448 30.58 15.0348 27.4 14.0648C26.46 13.7748 25.5 14.4948 25.5 15.4948V15.5348C25.5 16.1948 25.94 16.7648 26.57 16.9548ZM31.18 25.7048C30.5 27.9048 28.76 29.6348 26.57 30.3148C25.94 30.5048 25.5 31.0748 25.5 31.7248V31.7648C25.5 32.7648 26.46 33.4848 27.41 33.1948C30.59 32.2248 33.1 29.7148 34.07 26.5348C34.36 25.5848 33.64 24.6248 32.65 24.6248H32.6C31.94 24.6348 31.37 25.0748 31.18 25.7048ZM23.5 31.7448C23.5 31.0748 23.05 30.5048 22.41 30.3048C19.57 29.4148 17.5 26.7648 17.5 23.6348C17.5 20.5048 19.57 17.8548 22.41 16.9648C23.05 16.7648 23.5 16.1948 23.5 15.5248V15.5148C23.5 14.5148 22.53 13.7748 21.57 14.0748C17.48 15.3248 14.5 19.1348 14.5 23.6348C14.5 28.1348 17.48 31.9448 21.57 33.1948C22.53 33.4948 23.5 32.7548 23.5 31.7448Z" fill="#EAB308"/>
</svg>