<svg xmlns="http://www.w3.org/2000/svg" width="18" height="18" viewBox="0 0 24 24" fill="none">
  <path d="M24 12C24 18.6274 18.6274 24 12 24C5.37258 24 0 18.6274 0 12C0 5.37258 5.37258 0 12 0C18.6274 0 24 5.37258 24 12Z" fill="#FFEBDC"/>
  <path d="M12 7C9.25 7 7 9.25 7 12C7 14.75 9.25 17 12 17C14.75 17 17 14.75 17 12C17 9.25 14.75 7 12 7ZM13.775 13.9L11.735 12.645C11.585 12.555 11.495 12.395 11.495 12.22V9.875C11.5 9.67 11.67 9.5 11.875 9.5C12.08 9.5 12.25 9.67 12.25 9.875V12.1L14.17 13.255C14.35 13.365 14.41 13.6 14.3 13.78C14.19 13.955 13.955 14.01 13.775 13.9Z" fill="#FF5C00"/>
</svg>