<svg xmlns="http://www.w3.org/2000/svg" width="48" height="48" viewBox="0 0 48 48" fill="none">
  <path d="M48 24C48 37.2548 37.2548 48 24 48C10.7452 48 0 37.2548 0 24C0 10.7452 10.7452 0 24 0C37.2548 0 48 10.7452 48 24Z" fill="#FEE2E2"/>
  <path d="M30.4 19.7333H29.3333V17.6C29.3333 14.656 26.944 12.2667 24 12.2667C21.056 12.2667 18.6667 14.656 18.6667 17.6V19.7333H17.6C16.4267 19.7333 15.4667 20.6933 15.4667 21.8667V32.5333C15.4667 33.7067 16.4267 34.6667 17.6 34.6667H30.4C31.5733 34.6667 32.5333 33.7067 32.5333 32.5333V21.8667C32.5333 20.6933 31.5733 19.7333 30.4 19.7333ZM24 29.3333C22.8267 29.3333 21.8667 28.3733 21.8667 27.2C21.8667 26.0267 22.8267 25.0667 24 25.0667C25.1733 25.0667 26.1333 26.0267 26.1333 27.2C26.1333 28.3733 25.1733 29.3333 24 29.3333ZM20.8 19.7333V17.6C20.8 15.8293 22.2293 14.4 24 14.4C25.7707 14.4 27.2 15.8293 27.2 17.6V19.7333H20.8Z" fill="#EF4444"/>
</svg>