<svg xmlns="http://www.w3.org/2000/svg" width="19" height="18" viewBox="0 0 19 18" fill="none">
  <path d="M18.5 9C18.5 13.9706 14.4706 18 9.5 18C4.52944 18 0.5 13.9706 0.5 9C0.5 4.02944 4.52944 0 9.5 0C14.4706 0 18.5 4.02944 18.5 9Z" fill="#FEE2E2"/>
  <path d="M11.9 7.4H11.5V6.6C11.5 5.496 10.604 4.6 9.5 4.6C8.396 4.6 7.5 5.496 7.5 6.6V7.4H7.1C6.66 7.4 6.3 7.76 6.3 8.2V12.2C6.3 12.64 6.66 13 7.1 13H11.9C12.34 13 12.7 12.64 12.7 12.2V8.2C12.7 7.76 12.34 7.4 11.9 7.4ZM9.5 11C9.06 11 8.7 10.64 8.7 10.2C8.7 9.76 9.06 9.4 9.5 9.4C9.94 9.4 10.3 9.76 10.3 10.2C10.3 10.64 9.94 11 9.5 11ZM8.3 7.4V6.6C8.3 5.936 8.836 5.4 9.5 5.4C10.164 5.4 10.7 5.936 10.7 6.6V7.4H8.3Z" fill="#EF4444"/>
</svg>