<svg xmlns="http://www.w3.org/2000/svg" width="18" height="18" viewBox="0 0 25 26" fill="none">
  <path d="M25 13C25 19.9036 19.4036 25.5 12.5 25.5C5.59644 25.5 0 19.9036 0 13C0 6.09644 5.59644 0.5 12.5 0.5C19.4036 0.5 25 6.09644 25 13Z" fill="#FEE2E2"/>
  <path d="M12.5 7.79167C9.61979 7.79167 7.29167 10.1198 7.29167 13C7.29167 15.8802 9.61979 18.2083 12.5 18.2083C15.3802 18.2083 17.7083 15.8802 17.7083 13C17.7083 10.1198 15.3802 7.79167 12.5 7.79167ZM14.7396 15.2396C14.5365 15.4427 14.2083 15.4427 14.0052 15.2396L12.5 13.7344L10.9948 15.2396C10.7917 15.4427 10.4635 15.4427 10.2604 15.2396C10.0573 15.0365 10.0573 14.7083 10.2604 14.5052L11.7656 13L10.2604 11.4948C10.0573 11.2917 10.0573 10.9635 10.2604 10.7604C10.4635 10.5573 10.7917 10.5573 10.9948 10.7604L12.5 12.2656L14.0052 10.7604C14.2083 10.5573 14.5365 10.5573 14.7396 10.7604C14.9427 10.9635 14.9427 11.2917 14.7396 11.4948L13.2344 13L14.7396 14.5052C14.9375 14.7031 14.9375 15.0365 14.7396 15.2396Z" fill="#B91C1C"/>
</svg>