<svg width="48" height="48" viewBox="0 0 48 48" fill="none" xmlns="http://www.w3.org/2000/svg">
<circle cx="24" cy="24" r="24" fill="#FEE2E2"/>
<g clip-path="url(#clip0_3744_27042)">
<path d="M24 14C18.47 14 14 18.47 14 24C14 29.53 18.47 34 24 34C29.53 34 34 29.53 34 24C34 18.47 29.53 14 24 14ZM28.3 28.3C27.91 28.69 27.28 28.69 26.89 28.3L24 25.41L21.11 28.3C20.72 28.69 20.09 28.69 19.7 28.3C19.31 27.91 19.31 27.28 19.7 26.89L22.59 24L19.7 21.11C19.31 20.72 19.31 20.09 19.7 19.7C20.09 19.31 20.72 19.31 21.11 19.7L24 22.59L26.89 19.7C27.28 19.31 27.91 19.31 28.3 19.7C28.69 20.09 28.69 20.72 28.3 21.11L25.41 24L28.3 26.89C28.68 27.27 28.68 27.91 28.3 28.3Z" fill="#B91C1C"/>
</g>
<defs>
<clipPath id="clip0_3744_27042">
<rect width="24" height="24" fill="white" transform="translate(12 12)"/>
</clipPath>
</defs>
</svg>
