<svg xmlns="http://www.w3.org/2000/svg" width="48" height="48" viewBox="0 0 48 48" fill="none">
  <path d="M48 24C48 37.2548 37.2548 48 24 48C10.7452 48 0 37.2548 0 24C0 10.7452 10.7452 0 24 0C37.2548 0 48 10.7452 48 24Z" fill="#EFF6FF"/>
  <path d="M24 12C17.376 12 12 17.376 12 24C12 30.624 17.376 36 24 36C30.624 36 36 30.624 36 24C36 17.376 30.624 12 24 12ZM28.8 25.2H19.2C18.54 25.2 18 24.66 18 24C18 23.34 18.54 22.8 19.2 22.8H28.8C29.46 22.8 30 23.34 30 24C30 24.66 29.46 25.2 28.8 25.2Z" fill="#3B82F6"/>
</svg>