<svg xmlns="http://www.w3.org/2000/svg" width="25" height="26" viewBox="0 0 25 26" fill="none">
  <path d="M25 13C25 19.9036 19.4036 25.5 12.5 25.5C5.59644 25.5 0 19.9036 0 13C0 6.09644 5.59644 0.5 12.5 0.5C19.4036 0.5 25 6.09644 25 13Z" fill="#EFF6FF"/>
  <path d="M12.5 6.75C9.05 6.75 6.25 9.55 6.25 13C6.25 16.45 9.05 19.25 12.5 19.25C15.95 19.25 18.75 16.45 18.75 13C18.75 9.55 15.95 6.75 12.5 6.75ZM15 13.625H10C9.65625 13.625 9.375 13.3438 9.375 13C9.375 12.6562 9.65625 12.375 10 12.375H15C15.3438 12.375 15.625 12.6562 15.625 13C15.625 13.3438 15.3438 13.625 15 13.625Z" fill="#3B82F6"/>
</svg>