<svg xmlns="http://www.w3.org/2000/svg" width="19" height="18" viewBox="0 0 19 18" fill="none">
  <path d="M18.5 9.00288C18.5 13.7118 14.4706 17.5292 9.5 17.5292C4.52944 17.5292 0.5 13.7118 0.5 9.00288C0.5 4.29392 4.52944 0.476562 9.5 0.476562C14.4706 0.476562 18.5 4.29392 18.5 9.00288Z" fill="#FEF9C3"/>
  <path d="M9.34483 5.11311V12.8926C9.34483 13.1749 9.07017 13.3866 8.78155 13.3248C6.70069 12.8838 5.15517 11.1153 5.15517 9.00288C5.15517 6.89041 6.70069 5.12193 8.78155 4.68092C9.07017 4.61918 9.34483 4.83086 9.34483 5.11311ZM10.2898 5.11311V8.11644C10.2898 8.35899 10.4993 8.55745 10.7553 8.55745H13.9162C14.2141 8.55745 14.4376 8.29725 14.3724 8.01941C13.9767 6.36119 12.6034 5.05578 10.8578 4.68092C10.5645 4.61918 10.2898 4.83086 10.2898 5.11311ZM10.2898 9.88932V12.8926C10.2898 13.1749 10.5645 13.3866 10.8578 13.3248C12.6081 12.95 13.9814 11.6402 14.3771 9.98193C14.4422 9.7085 14.2141 9.44389 13.9209 9.44389H10.76C10.4993 9.4483 10.2898 9.64676 10.2898 9.88932Z" fill="#FBBF24"/>
</svg>