<svg xmlns="http://www.w3.org/2000/svg" width="48" height="48" viewBox="0 0 48 48" fill="none">
  <path d="M48 24C48 37.2548 37.2548 48 24 48C10.7452 48 0 37.2548 0 24C0 10.7452 10.7452 0 24 0C37.2548 0 48 10.7452 48 24Z" fill="#FEF9C3"/>
  <path d="M23.5862 13.051V34.949C23.5862 35.7435 22.8538 36.3393 22.0841 36.1655C16.5352 34.9241 12.4138 29.9462 12.4138 24C12.4138 18.0538 16.5352 13.0759 22.0841 11.8345C22.8538 11.6607 23.5862 12.2566 23.5862 13.051ZM26.1062 13.051V21.5048C26.1062 22.1876 26.6648 22.7462 27.3476 22.7462H35.7766C36.571 22.7462 37.1669 22.0138 36.9931 21.2317C35.9379 16.5641 32.2759 12.8897 27.6207 11.8345C26.8386 11.6607 26.1062 12.2566 26.1062 13.051ZM26.1062 26.4952V34.949C26.1062 35.7435 26.8386 36.3393 27.6207 36.1655C32.2883 35.1103 35.9503 31.4235 37.0055 26.7559C37.1793 25.9862 36.571 25.2414 35.789 25.2414H27.36C26.6648 25.2538 26.1062 25.8124 26.1062 26.4952Z" fill="#FBBF24"/>
</svg>