<svg xmlns="http://www.w3.org/2000/svg" width="48" height="48" viewBox="0 0 48 48" fill="none">
  <path d="M48 24C48 37.2548 37.2548 48 24 48C10.7452 48 0 37.2548 0 24C0 10.7452 10.7452 0 24 0C37.2548 0 48 10.7452 48 24Z" fill="#E9FBF4"/>
  <path d="M37.2 24L34.272 20.652L34.68 16.224L30.348 15.24L28.08 11.4L24 13.152L19.92 11.4L17.652 15.228L13.32 16.2L13.728 20.64L10.8 24L13.728 27.348L13.32 31.788L17.652 32.772L19.92 36.6L24 34.836L28.08 36.588L30.348 32.76L34.68 31.776L34.272 27.348L37.2 24ZM20.856 28.812L18 25.932C17.532 25.464 17.532 24.708 18 24.24L18.084 24.156C18.552 23.688 19.32 23.688 19.788 24.156L21.72 26.1L27.9 19.908C28.368 19.44 29.136 19.44 29.604 19.908L29.688 19.992C30.156 20.46 30.156 21.216 29.688 21.684L22.584 28.812C22.092 29.28 21.336 29.28 20.856 28.812Z" fill="#024A53"/>
</svg>